<svg id="svg" version="1.1" xmlns="http://www.w3.org/2000/svg" xmlns:xlink="http://www.w3.org/1999/xlink" width="400" height="400" viewBox="0, 0, 400,400"><g id="svgg"><path id="path0" d="M69.200 6.400 C 69.200 6.620,68.660 6.800,68.000 6.800 C 67.340 6.800,66.800 6.980,66.800 7.200 C 66.800 7.420,66.440 7.600,66.000 7.600 C 65.560 7.600,65.200 7.780,65.200 8.000 C 65.200 8.220,64.930 8.400,64.600 8.400 C 64.270 8.400,64.000 8.580,64.000 8.800 C 64.000 9.020,63.797 9.200,63.548 9.200 C 62.933 9.200,59.223 12.877,59.210 13.500 C 59.205 13.775,59.020 14.000,58.800 14.000 C 58.580 14.000,58.400 14.270,58.400 14.600 C 58.400 14.930,58.220 15.200,58.000 15.200 C 57.780 15.200,57.600 15.560,57.600 16.000 C 57.600 16.440,57.420 16.800,57.200 16.800 C 56.980 16.800,56.800 17.340,56.800 18.000 C 56.800 18.660,56.620 19.200,56.400 19.200 C 56.139 19.200,56.000 25.600,56.000 37.600 C 56.000 49.600,56.139 56.000,56.400 56.000 C 56.620 56.000,56.800 56.324,56.800 56.720 C 56.800 57.614,57.694 59.593,58.100 59.597 C 58.265 59.599,58.400 59.876,58.400 60.214 C 58.400 60.552,58.762 61.227,59.204 61.714 C 62.001 64.796,63.125 65.865,64.100 66.368 C 64.705 66.680,65.200 67.085,65.200 67.268 C 65.200 67.450,65.560 67.600,66.000 67.600 C 66.440 67.600,66.800 67.780,66.800 68.000 C 66.800 68.220,67.340 68.400,68.000 68.400 C 68.660 68.400,69.200 68.580,69.200 68.800 C 69.200 69.048,71.412 69.200,75.036 69.200 L 80.871 69.200 80.619 71.700 C 80.480 73.075,80.272 76.000,80.157 78.200 C 80.042 80.400,79.780 82.371,79.574 82.580 C 79.368 82.789,79.200 83.723,79.200 84.656 C 79.200 85.589,79.020 86.464,78.800 86.600 C 78.580 86.736,78.400 87.467,78.400 88.224 C 78.400 88.981,78.241 89.600,78.046 89.600 C 77.851 89.600,77.568 90.590,77.417 91.800 C 77.266 93.010,76.975 94.000,76.771 94.000 C 76.567 94.000,76.400 94.245,76.400 94.544 C 76.400 95.201,73.924 100.145,73.500 100.333 C 73.335 100.407,73.200 100.812,73.200 101.233 C 73.200 101.655,73.020 102.000,72.800 102.000 C 72.580 102.000,72.400 102.320,72.400 102.712 C 72.400 103.103,72.040 103.683,71.600 104.000 C 71.160 104.317,70.800 104.809,70.800 105.092 C 70.800 105.375,70.260 106.172,69.600 106.863 C 68.940 107.554,68.400 108.244,68.400 108.397 C 68.400 108.550,66.997 110.122,65.283 111.890 C 63.569 113.658,61.724 115.686,61.183 116.395 C 60.642 117.105,59.615 118.291,58.900 119.030 C 58.185 119.769,57.600 120.577,57.600 120.826 C 57.600 121.075,57.060 121.783,56.400 122.400 C 55.740 123.017,55.200 123.726,55.200 123.977 C 55.200 124.228,54.840 124.820,54.400 125.292 C 53.960 125.764,53.600 126.387,53.600 126.675 C 53.600 126.964,53.420 127.200,53.200 127.200 C 52.980 127.200,52.800 127.470,52.800 127.800 C 52.800 128.130,52.654 128.400,52.475 128.400 C 52.296 128.400,51.902 129.030,51.600 129.800 C 51.298 130.570,50.948 131.200,50.823 131.200 C 50.698 131.200,50.360 131.785,50.071 132.500 C 49.783 133.215,49.379 134.113,49.174 134.495 C 48.968 134.877,48.800 135.462,48.800 135.795 C 48.800 136.128,48.653 136.400,48.472 136.400 C 48.292 136.400,47.900 137.300,47.600 138.400 C 47.300 139.500,46.908 140.400,46.728 140.400 C 46.547 140.400,46.400 140.929,46.400 141.576 C 46.400 142.223,46.220 142.864,46.000 143.000 C 45.780 143.136,45.600 143.766,45.600 144.400 C 45.600 145.034,45.420 145.664,45.200 145.800 C 44.980 145.936,44.800 146.631,44.800 147.344 C 44.800 148.057,44.575 148.865,44.300 149.140 C 43.565 149.875,43.565 338.925,44.300 339.660 C 44.575 339.935,44.800 340.743,44.800 341.456 C 44.800 342.169,44.980 342.864,45.200 343.000 C 45.420 343.136,45.600 343.766,45.600 344.400 C 45.600 345.034,45.780 345.664,46.000 345.800 C 46.220 345.936,46.400 346.476,46.400 347.000 C 46.400 347.524,46.580 348.064,46.800 348.200 C 47.020 348.336,47.200 348.887,47.200 349.424 C 47.200 349.961,47.380 350.400,47.600 350.400 C 47.820 350.400,48.000 350.755,48.000 351.188 C 48.000 351.621,48.360 352.617,48.800 353.400 C 49.240 354.183,49.600 355.089,49.600 355.412 C 49.600 355.735,49.746 356.000,49.925 356.000 C 50.104 356.000,50.498 356.630,50.800 357.400 C 51.102 358.170,51.496 358.800,51.675 358.800 C 51.854 358.800,52.000 359.120,52.000 359.512 C 52.000 359.903,52.360 360.483,52.800 360.800 C 53.240 361.117,53.600 361.697,53.600 362.088 C 53.600 362.480,53.750 362.800,53.932 362.800 C 54.115 362.800,54.519 363.295,54.830 363.900 C 55.140 364.505,55.711 365.291,56.097 365.647 C 56.484 366.003,56.800 366.502,56.800 366.757 C 56.800 367.012,57.610 368.031,58.600 369.021 C 59.590 370.011,60.403 370.951,60.406 371.111 C 60.415 371.573,65.482 376.800,65.921 376.800 C 66.140 376.800,67.238 377.700,68.361 378.800 C 69.485 379.900,70.607 380.800,70.855 380.800 C 71.103 380.800,71.597 381.116,71.953 381.503 C 72.309 381.889,73.095 382.460,73.700 382.770 C 74.305 383.081,74.800 383.485,74.800 383.668 C 74.800 383.850,75.094 384.000,75.453 384.000 C 75.812 384.000,76.397 384.320,76.753 384.712 C 77.465 385.494,85.497 389.607,86.305 389.603 C 86.794 389.600,87.223 389.774,89.065 390.719 C 89.541 390.963,90.850 391.285,91.974 391.434 C 93.098 391.583,94.115 391.862,94.233 392.053 C 94.351 392.244,95.056 392.400,95.800 392.400 C 96.544 392.400,97.264 392.580,97.400 392.800 C 97.536 393.020,98.627 393.200,99.824 393.200 C 101.021 393.200,102.000 393.380,102.000 393.600 C 102.000 393.866,134.933 394.000,200.000 394.000 C 265.067 394.000,298.000 393.866,298.000 393.600 C 298.000 393.380,298.979 393.200,300.176 393.200 C 301.373 393.200,302.464 393.020,302.600 392.800 C 302.736 392.580,303.557 392.400,304.424 392.400 C 305.291 392.400,306.000 392.241,306.000 392.046 C 306.000 391.851,306.990 391.568,308.200 391.417 C 309.410 391.266,310.400 390.975,310.400 390.771 C 310.400 390.567,310.839 390.400,311.376 390.400 C 311.913 390.400,312.464 390.220,312.600 390.000 C 312.736 389.780,313.152 389.596,313.524 389.592 C 313.896 389.587,316.000 388.667,318.200 387.548 C 320.400 386.429,322.604 385.308,323.097 385.057 C 323.590 384.806,323.995 384.465,323.997 384.300 C 323.999 384.135,324.230 384.000,324.512 384.000 C 324.793 384.000,325.283 383.640,325.600 383.200 C 325.917 382.760,326.457 382.400,326.800 382.400 C 327.143 382.400,327.683 382.040,328.000 381.600 C 328.317 381.160,328.789 380.800,329.048 380.800 C 329.307 380.800,330.438 379.900,331.561 378.800 C 332.685 377.700,333.773 376.800,333.980 376.800 C 334.826 376.800,343.198 367.527,343.200 366.588 C 343.200 366.362,343.560 365.917,344.000 365.600 C 344.440 365.283,344.800 364.743,344.800 364.400 C 344.800 364.057,345.160 363.517,345.600 363.200 C 346.040 362.883,346.400 362.303,346.400 361.912 C 346.400 361.520,346.550 361.200,346.732 361.200 C 346.915 361.200,347.320 360.705,347.632 360.100 C 347.944 359.495,348.290 358.910,348.402 358.800 C 348.857 358.352,351.200 353.448,351.200 352.944 C 351.200 352.645,351.380 352.400,351.600 352.400 C 351.820 352.400,352.000 351.950,352.000 351.400 C 352.000 350.850,352.180 350.400,352.400 350.400 C 352.620 350.400,352.800 349.860,352.800 349.200 C 352.800 348.540,352.980 348.000,353.200 348.000 C 353.420 348.000,353.600 347.460,353.600 346.800 C 353.600 346.140,353.780 345.600,354.000 345.600 C 354.220 345.600,354.400 345.060,354.400 344.400 C 354.400 343.740,354.580 343.200,354.800 343.200 C 355.020 343.200,355.200 342.516,355.200 341.680 C 355.200 340.844,355.363 339.989,355.563 339.780 C 356.420 338.883,356.502 330.541,356.502 244.400 C 356.502 158.259,356.420 149.917,355.563 149.020 C 355.363 148.811,355.200 148.057,355.200 147.344 C 355.200 146.631,355.020 145.936,354.800 145.800 C 354.580 145.664,354.400 144.933,354.400 144.176 C 354.400 143.419,354.220 142.800,354.000 142.800 C 353.780 142.800,353.600 142.260,353.600 141.600 C 353.600 140.940,353.420 140.400,353.200 140.400 C 352.980 140.400,352.800 139.961,352.800 139.424 C 352.800 138.887,352.620 138.336,352.400 138.200 C 352.180 138.064,352.000 137.603,352.000 137.176 C 352.000 136.749,351.820 136.400,351.600 136.400 C 351.380 136.400,351.200 136.128,351.200 135.795 C 351.200 135.462,351.032 134.877,350.826 134.495 C 350.621 134.113,350.217 133.215,349.929 132.500 C 349.640 131.785,349.302 131.200,349.177 131.200 C 349.052 131.200,348.702 130.570,348.400 129.800 C 348.098 129.030,347.704 128.400,347.525 128.400 C 347.346 128.400,347.200 128.130,347.200 127.800 C 347.200 127.470,347.020 127.200,346.800 127.200 C 346.580 127.200,346.400 126.964,346.400 126.675 C 346.400 126.387,346.040 125.764,345.600 125.292 C 345.160 124.820,344.800 124.228,344.800 123.977 C 344.800 123.726,344.260 123.017,343.600 122.400 C 342.940 121.783,342.400 121.068,342.400 120.811 C 342.400 120.553,342.175 120.094,341.900 119.789 C 341.625 119.484,340.590 118.291,339.600 117.137 C 338.610 115.983,336.405 113.615,334.700 111.875 C 332.995 110.135,331.600 108.534,331.600 108.316 C 331.600 108.099,331.060 107.417,330.400 106.800 C 329.740 106.183,329.200 105.431,329.200 105.128 C 329.200 104.825,328.840 104.317,328.400 104.000 C 327.960 103.683,327.600 103.103,327.600 102.712 C 327.600 102.320,327.420 102.000,327.200 102.000 C 326.980 102.000,326.800 101.640,326.800 101.200 C 326.800 100.760,326.620 100.400,326.400 100.400 C 326.180 100.400,326.000 100.040,326.000 99.600 C 326.000 99.160,325.828 98.800,325.618 98.800 C 325.408 98.800,325.118 98.170,324.974 97.400 C 324.829 96.630,324.551 96.000,324.355 96.000 C 324.160 96.000,324.000 95.651,324.000 95.224 C 324.000 94.797,323.820 94.336,323.600 94.200 C 323.380 94.064,323.200 93.513,323.200 92.976 C 323.200 92.439,323.020 92.000,322.800 92.000 C 322.580 92.000,322.400 91.460,322.400 90.800 C 322.400 90.140,322.220 89.600,322.000 89.600 C 321.780 89.600,321.600 88.981,321.600 88.224 C 321.600 87.467,321.420 86.736,321.200 86.600 C 320.980 86.464,320.800 85.564,320.800 84.600 C 320.800 83.636,320.620 82.736,320.400 82.600 C 320.177 82.462,320.000 80.604,320.000 78.400 C 320.000 76.196,319.823 74.338,319.600 74.200 C 319.380 74.064,319.200 72.883,319.200 71.576 L 319.200 69.200 325.000 69.200 C 328.600 69.200,330.800 69.048,330.800 68.800 C 330.800 68.580,331.340 68.400,332.000 68.400 C 332.660 68.400,333.200 68.220,333.200 68.000 C 333.200 67.780,333.560 67.600,334.000 67.600 C 334.440 67.600,334.800 67.450,334.800 67.268 C 334.800 67.085,335.295 66.680,335.900 66.368 C 337.449 65.568,341.169 61.661,341.451 60.538 C 341.581 60.022,341.847 59.600,342.043 59.600 C 342.240 59.600,342.400 59.240,342.400 58.800 C 342.400 58.360,342.580 58.000,342.800 58.000 C 343.020 58.000,343.200 57.561,343.200 57.024 C 343.200 56.487,343.380 55.936,343.600 55.800 C 343.857 55.641,344.000 49.063,344.000 37.376 C 344.000 25.525,343.861 19.200,343.600 19.200 C 343.380 19.200,343.200 18.660,343.200 18.000 C 343.200 17.340,343.020 16.800,342.800 16.800 C 342.580 16.800,342.400 16.440,342.400 16.000 C 342.400 15.560,342.240 15.200,342.043 15.200 C 341.847 15.200,341.579 14.771,341.447 14.246 C 341.178 13.173,336.199 8.400,335.349 8.400 C 335.047 8.400,334.800 8.220,334.800 8.000 C 334.800 7.780,334.440 7.600,334.000 7.600 C 333.560 7.600,333.200 7.420,333.200 7.200 C 333.200 6.980,332.660 6.800,332.000 6.800 C 331.340 6.800,330.800 6.620,330.800 6.400 C 330.800 6.134,286.933 6.000,200.000 6.000 C 113.067 6.000,69.200 6.134,69.200 6.400 M329.341 20.343 C 331.422 22.359,332.613 29.861,331.058 31.152 C 330.659 31.483,296.089 31.575,199.758 31.501 L 69.000 31.400 68.894 27.200 C 68.775 22.448,69.282 21.071,71.696 19.597 C 72.991 18.806,73.833 18.802,200.478 18.900 L 327.956 19.000 329.341 20.343 M331.200 47.941 C 331.200 52.772,330.636 54.218,328.200 55.641 C 327.064 56.304,320.254 56.343,200.094 56.371 L 73.189 56.400 71.848 55.521 C 69.264 53.827,68.800 52.663,68.800 47.875 L 68.800 43.600 200.000 43.600 L 331.200 43.600 331.200 47.941 M277.534 68.666 L 306.400 68.932 306.400 72.745 C 306.400 78.063,307.234 84.442,308.681 90.200 C 309.013 91.520,309.376 93.097,309.488 93.705 C 309.600 94.313,309.851 94.908,310.046 95.029 C 310.241 95.149,310.400 95.594,310.400 96.017 C 310.400 96.441,311.117 98.449,311.993 100.481 C 314.247 105.711,313.334 105.788,305.976 100.984 C 302.864 98.953,298.947 96.915,297.020 96.325 C 287.476 93.401,281.324 93.401,271.780 96.325 C 269.881 96.906,265.953 98.942,262.941 100.906 C 258.875 103.557,255.667 105.116,252.554 105.956 C 250.605 106.481,240.840 106.553,239.519 106.051 C 239.013 105.859,237.880 105.480,237.000 105.208 C 236.120 104.937,231.890 103.010,227.600 100.927 C 218.166 96.348,218.052 96.298,215.200 95.532 C 203.199 92.308,192.268 94.089,181.600 101.007 C 177.836 103.448,174.153 105.260,171.800 105.831 C 164.089 107.699,157.407 106.389,146.007 100.774 C 136.266 95.977,135.087 95.538,128.976 94.437 C 125.913 93.885,117.350 93.869,114.877 94.411 C 113.845 94.638,112.100 95.011,111.000 95.241 C 108.117 95.844,105.404 96.959,98.400 100.417 C 94.990 102.100,91.480 103.790,90.600 104.172 C 89.720 104.555,88.687 105.032,88.305 105.234 C 85.864 106.521,85.631 105.716,87.358 101.956 C 88.689 99.058,89.769 96.186,90.425 93.800 C 91.381 90.323,91.656 89.211,92.057 87.200 C 92.832 83.312,93.201 79.920,93.428 74.600 C 93.550 71.740,93.723 69.175,93.812 68.900 C 93.995 68.337,223.840 68.171,277.534 68.666 M126.819 106.398 C 130.815 106.856,132.808 107.617,142.105 112.236 C 157.745 120.005,168.709 120.830,181.073 115.167 C 183.602 114.008,184.095 113.721,189.400 110.320 C 195.846 106.187,206.531 104.779,212.686 107.252 C 213.299 107.498,214.160 107.844,214.600 108.020 C 215.040 108.196,218.910 110.060,223.200 112.161 C 235.609 118.241,241.704 119.604,251.071 118.397 C 258.071 117.494,263.180 115.431,270.165 110.688 C 278.827 104.806,289.614 104.879,299.000 110.882 C 304.410 114.343,305.308 114.844,308.100 115.960 C 311.992 117.515,317.986 118.794,321.433 118.805 C 324.971 118.816,340.000 138.639,340.000 143.293 C 340.000 143.594,340.143 144.011,340.318 144.220 C 341.305 145.397,343.066 153.284,343.574 158.800 C 344.140 164.951,344.163 323.602,343.598 329.800 C 341.240 355.688,322.180 376.204,296.400 380.606 C 291.273 381.481,108.689 381.477,103.600 380.601 C 80.733 376.667,63.546 360.799,57.713 338.234 L 56.670 334.200 56.278 250.600 C 55.858 160.943,55.905 157.753,57.754 150.400 C 60.239 140.521,64.821 132.040,71.700 124.593 C 73.322 122.837,75.163 120.815,75.791 120.100 C 76.842 118.903,77.125 118.799,79.366 118.793 C 82.559 118.784,89.280 117.641,92.200 116.610 C 93.718 116.074,94.629 115.650,102.800 111.676 C 114.504 105.985,117.488 105.329,126.819 106.398 M112.800 125.000 L 112.800 131.200 118.800 131.200 L 124.800 131.200 124.800 125.000 L 124.800 118.800 118.800 118.800 L 112.800 118.800 112.800 125.000 M206.400 124.990 L 206.400 131.200 212.610 131.200 L 218.821 131.200 218.710 125.100 L 218.600 119.000 212.500 118.890 L 206.400 118.779 206.400 124.990 M275.200 124.990 L 275.200 131.200 281.410 131.200 L 287.621 131.200 287.510 125.100 L 287.400 119.000 281.300 118.890 L 275.200 118.779 275.200 124.990 M81.467 131.467 C 81.320 131.613,81.200 134.403,81.200 137.667 L 81.200 143.600 87.400 143.600 L 93.600 143.600 93.600 137.400 L 93.600 131.200 87.667 131.200 C 84.403 131.200,81.613 131.320,81.467 131.467 M100.827 144.433 C 88.726 146.823,79.245 155.643,76.140 167.400 C 75.024 171.624,74.983 328.646,76.097 332.800 C 79.114 344.055,88.065 352.623,99.800 355.490 C 103.266 356.336,287.577 356.825,295.800 356.009 C 309.645 354.635,319.558 346.657,323.663 333.583 L 324.600 330.600 324.600 250.000 L 324.600 169.400 323.663 166.417 C 320.356 155.885,313.304 148.763,302.600 145.146 L 299.800 144.200 201.200 144.141 C 146.183 144.109,101.817 144.238,100.827 144.433 M297.017 156.437 C 304.720 157.861,310.965 164.101,312.366 171.773 C 312.976 175.109,312.976 324.891,312.366 328.227 C 311.016 335.623,305.024 341.814,297.523 343.562 C 294.929 344.167,105.758 344.183,102.720 343.578 C 97.167 342.474,91.711 338.216,89.166 333.000 L 87.800 330.200 87.457 253.200 C 87.213 198.415,87.239 175.231,87.547 172.841 C 88.608 164.614,94.064 158.587,102.400 156.434 C 104.526 155.885,294.046 155.888,297.017 156.437 M167.755 169.475 C 166.401 169.741,164.989 171.498,159.228 180.084 C 154.783 186.709,153.583 188.237,152.600 188.523 C 151.418 188.867,149.739 189.228,145.800 189.984 C 144.700 190.195,142.900 190.555,141.800 190.784 C 140.700 191.013,138.900 191.373,137.800 191.584 C 136.700 191.795,134.990 192.138,134.000 192.347 C 131.887 192.792,127.987 193.537,126.000 193.875 C 121.764 194.595,119.394 197.864,120.400 201.598 C 120.921 203.535,121.358 203.967,127.200 208.334 C 129.730 210.225,131.890 211.880,132.000 212.012 C 132.110 212.145,133.010 212.811,134.000 213.494 C 134.990 214.177,136.423 215.264,137.184 215.910 L 138.568 217.086 136.350 219.643 C 129.385 227.671,126.637 234.942,126.614 245.400 C 126.588 257.079,128.071 260.777,138.800 275.791 C 139.790 277.177,141.214 279.185,141.965 280.255 C 142.715 281.325,144.261 283.460,145.400 285.000 C 147.575 287.941,149.470 290.621,152.892 295.600 C 155.882 299.949,158.727 302.636,161.835 304.045 L 164.474 305.241 164.177 307.721 C 162.329 323.159,172.523 332.125,188.600 329.199 C 189.700 328.999,191.770 328.639,193.200 328.399 C 194.630 328.159,196.700 327.804,197.800 327.609 C 198.900 327.414,201.060 327.055,202.600 326.812 C 204.140 326.569,206.435 326.197,207.700 325.985 C 208.965 325.773,211.080 325.420,212.400 325.200 C 225.043 323.093,227.766 322.387,232.477 319.993 C 244.812 313.724,253.019 301.328,253.885 287.655 L 254.123 283.911 256.561 284.159 C 257.903 284.296,260.080 284.586,261.400 284.804 C 262.720 285.021,265.870 285.485,268.400 285.834 C 270.930 286.184,273.646 286.564,274.435 286.679 C 277.632 287.144,281.200 283.904,281.200 280.535 C 281.200 279.013,280.128 277.225,271.809 264.863 C 263.718 252.843,263.608 252.617,264.372 249.646 C 264.576 248.851,264.951 247.120,265.204 245.800 C 265.458 244.480,265.816 242.680,266.000 241.800 C 266.184 240.920,266.546 239.120,266.803 237.800 C 267.061 236.480,267.448 234.569,267.663 233.552 C 268.539 229.420,265.242 225.669,261.110 226.094 C 260.169 226.190,255.291 227.107,250.269 228.132 C 242.835 229.649,240.977 229.909,240.269 229.531 C 239.791 229.276,234.026 225.465,227.457 221.063 C 216.348 213.618,215.370 213.048,213.457 212.907 C 208.732 212.559,206.203 216.620,207.544 222.400 C 208.140 224.970,207.550 224.845,205.231 221.908 C 203.968 220.309,202.634 218.753,202.267 218.451 C 200.869 217.300,201.574 216.555,209.987 210.285 C 219.955 202.857,220.944 201.403,218.881 197.220 C 217.646 194.715,216.045 194.167,202.400 191.578 C 201.410 191.390,199.790 191.064,198.800 190.853 C 197.810 190.642,196.280 190.354,195.400 190.211 C 194.520 190.069,193.080 189.798,192.200 189.609 C 191.320 189.420,189.545 189.037,188.255 188.758 L 185.909 188.251 180.290 179.825 C 173.140 169.106,172.465 168.549,167.755 169.475 M174.084 192.333 C 178.484 198.915,178.831 199.235,182.400 200.004 C 185.969 200.773,197.956 203.200,198.187 203.200 C 198.768 203.200,197.823 204.053,194.191 206.806 L 190.377 209.698 187.173 208.640 C 177.634 205.487,163.501 205.424,153.499 208.489 C 151.354 209.147,149.374 209.596,149.099 209.488 C 147.727 208.948,140.590 203.223,141.251 203.193 C 142.796 203.123,159.082 199.504,160.163 198.991 C 161.375 198.416,162.451 197.109,165.651 192.324 C 167.840 189.050,169.811 186.483,170.031 186.619 C 170.250 186.755,172.074 189.326,174.084 192.333 M181.357 219.639 C 200.578 225.314,206.974 245.948,194.845 263.151 C 193.390 265.215,191.480 267.936,190.600 269.199 C 189.720 270.462,188.681 271.924,188.292 272.448 C 187.903 272.971,184.568 277.630,180.882 282.800 C 173.450 293.224,172.882 293.753,169.400 293.497 C 166.314 293.270,165.910 292.831,155.974 278.886 C 150.846 271.689,145.776 264.630,144.709 263.200 C 132.607 246.992,139.014 225.731,157.800 219.756 C 161.936 218.440,177.042 218.365,181.357 219.639 M162.800 237.400 L 162.800 243.600 168.800 243.600 L 174.800 243.600 174.800 237.400 L 174.800 231.200 168.800 231.200 L 162.800 231.200 162.800 237.400 M229.234 237.048 C 238.706 243.367,237.914 243.165,246.447 241.448 C 250.263 240.680,253.441 240.108,253.509 240.176 C 253.630 240.297,253.067 243.754,252.398 247.000 C 250.645 255.503,250.566 255.183,256.677 264.406 C 259.450 268.591,261.643 272.090,261.552 272.182 C 261.460 272.273,260.038 272.159,258.393 271.927 C 256.747 271.695,254.592 271.392,253.604 271.253 C 251.840 271.004,251.782 270.948,250.280 268.000 C 245.814 259.236,235.071 248.323,226.631 243.977 L 223.000 242.107 222.540 239.754 C 221.580 234.836,221.339 232.400,221.813 232.400 C 222.063 232.400,225.402 234.491,229.234 237.048 M150.267 250.267 C 150.120 250.413,150.000 253.203,150.000 256.467 L 150.000 262.400 156.200 262.400 L 162.400 262.400 162.400 256.200 L 162.400 250.000 156.467 250.000 C 153.203 250.000,150.413 250.120,150.267 250.267 M175.200 256.200 L 175.200 262.421 181.300 262.310 L 187.400 262.200 187.400 256.200 L 187.400 250.200 181.300 250.090 L 175.200 249.979 175.200 256.200 M216.825 253.240 C 222.795 255.199,227.550 258.900,235.444 267.728 C 241.303 274.281,243.512 285.912,240.396 293.800 C 237.109 302.120,231.835 307.509,224.178 310.374 C 222.208 311.111,211.409 313.131,200.600 314.785 C 195.984 315.491,185.783 317.205,183.786 317.610 C 178.395 318.704,175.441 315.193,176.376 308.800 C 176.990 304.603,177.027 304.519,178.659 303.745 C 181.774 302.267,186.354 296.667,196.701 281.684 C 197.417 280.648,198.253 279.506,198.558 279.146 C 199.095 278.514,200.639 276.315,205.868 268.736 C 209.531 263.427,211.422 259.140,212.588 253.500 C 212.866 252.156,213.422 252.122,216.825 253.240 M212.667 262.667 C 212.520 262.813,212.400 265.603,212.400 268.867 L 212.400 274.800 218.600 274.800 L 224.800 274.800 224.800 268.600 L 224.800 262.400 218.867 262.400 C 215.603 262.400,212.813 262.520,212.667 262.667 M218.800 293.800 L 218.800 300.000 225.000 300.000 L 231.200 300.000 231.200 293.800 L 231.200 287.600 225.000 287.600 L 218.800 287.600 218.800 293.800 M194.000 300.210 L 194.000 306.421 200.100 306.310 L 206.200 306.200 206.310 300.100 L 206.421 294.000 200.210 294.000 L 194.000 294.000 194.000 300.210 " stroke="none" fill="#040404" fill-rule="evenodd"></path><path id="path1" d="M72.900 19.396 C 72.185 19.707,71.600 20.051,71.600 20.160 C 71.600 20.270,72.224 20.098,72.987 19.780 C 74.188 19.278,91.230 19.200,200.207 19.200 C 338.591 19.200,327.275 18.996,329.559 21.534 C 330.497 22.577,330.505 22.578,329.917 21.600 C 329.586 21.050,328.615 20.198,327.758 19.707 L 326.200 18.813 200.200 18.822 C 92.560 18.830,74.011 18.914,72.900 19.396 M330.644 23.800 C 330.973 25.271,331.202 25.590,331.194 24.567 C 331.191 24.145,331.005 23.530,330.782 23.200 C 330.485 22.762,330.448 22.924,330.644 23.800 M68.944 27.600 C 68.944 29.690,69.012 30.545,69.094 29.500 C 69.176 28.455,69.176 26.745,69.094 25.700 C 69.012 24.655,68.944 25.510,68.944 27.600 M68.800 46.950 C 68.800 51.653,70.030 54.300,72.741 55.433 C 74.779 56.285,325.218 56.286,327.251 55.435 C 330.132 54.228,331.200 52.049,331.200 47.381 L 331.200 44.000 200.000 44.000 L 68.800 44.000 68.800 46.950 M164.100 106.276 C 164.485 106.376,165.115 106.376,165.500 106.276 C 165.885 106.175,165.570 106.093,164.800 106.093 C 164.030 106.093,163.715 106.175,164.100 106.276 M245.300 106.276 C 245.685 106.376,246.315 106.376,246.700 106.276 C 247.085 106.175,246.770 106.093,246.000 106.093 C 245.230 106.093,244.915 106.175,245.300 106.276 M115.800 106.878 C 111.293 107.941,111.418 107.889,102.600 112.310 C 92.347 117.451,87.983 118.800,81.610 118.800 L 77.632 118.800 76.116 120.451 C 75.282 121.358,73.469 123.293,72.086 124.751 C 67.269 129.827,61.718 138.860,60.011 144.400 C 59.706 145.390,59.331 146.380,59.178 146.600 C 59.025 146.820,58.799 147.540,58.675 148.200 C 58.551 148.860,58.253 150.210,58.014 151.200 C 56.616 156.982,56.600 158.075,56.620 243.800 C 56.640 328.302,56.681 331.075,57.993 337.000 C 58.236 338.100,58.540 339.540,58.668 340.200 C 58.796 340.860,59.025 341.580,59.178 341.800 C 59.331 342.020,59.705 343.010,60.010 344.000 C 62.600 352.423,70.647 363.340,78.600 369.224 C 79.920 370.201,81.060 371.135,81.133 371.300 C 81.207 371.465,81.522 371.600,81.833 371.600 C 82.145 371.600,82.401 371.735,82.403 371.900 C 82.405 372.065,82.810 372.402,83.303 372.648 C 83.796 372.894,85.984 374.019,88.164 375.148 C 90.344 376.277,92.449 377.200,92.841 377.200 C 93.232 377.200,93.664 377.380,93.800 377.600 C 93.936 377.820,94.451 378.000,94.944 378.000 C 95.437 378.000,96.011 378.147,96.220 378.327 C 96.585 378.641,98.657 379.170,102.700 379.981 C 108.265 381.097,116.425 381.200,199.845 381.203 C 283.153 381.207,292.685 381.089,297.200 379.998 C 297.970 379.812,299.680 379.437,301.000 379.165 C 302.320 378.894,303.571 378.520,303.780 378.336 C 303.989 378.151,304.563 378.000,305.056 378.000 C 305.549 378.000,306.064 377.820,306.200 377.600 C 306.336 377.380,306.887 377.200,307.424 377.200 C 307.961 377.200,308.400 377.020,308.400 376.800 C 308.400 376.580,308.645 376.400,308.945 376.400 C 309.602 376.400,315.120 373.596,316.756 372.432 C 317.398 371.974,318.106 371.600,318.328 371.600 C 318.551 371.600,318.793 371.455,318.867 371.277 C 318.940 371.099,319.900 370.340,321.000 369.590 C 327.830 364.934,339.600 349.308,339.600 344.896 C 339.600 344.617,339.759 344.077,339.953 343.695 C 340.643 342.340,341.143 340.984,341.391 339.800 C 341.530 339.140,341.826 337.790,342.049 336.800 C 343.285 331.312,343.335 327.765,343.348 244.600 C 343.357 182.246,343.239 159.724,342.889 157.200 C 342.630 155.330,342.305 152.990,342.168 152.000 C 342.030 151.010,341.756 150.029,341.559 149.820 C 341.362 149.611,341.200 148.947,341.200 148.344 C 341.200 147.741,341.020 147.136,340.800 147.000 C 340.580 146.864,340.400 146.401,340.400 145.971 C 340.400 145.541,340.241 144.877,340.047 144.495 C 339.852 144.113,339.514 143.350,339.296 142.800 C 336.566 135.936,331.688 128.668,325.647 122.462 L 322.600 119.332 318.200 118.879 C 312.087 118.249,306.797 116.534,302.928 113.927 C 302.008 113.307,301.143 112.800,301.006 112.800 C 300.869 112.800,299.696 112.080,298.400 111.200 C 297.104 110.320,295.854 109.600,295.622 109.600 C 295.390 109.600,295.199 109.465,295.198 109.300 C 295.182 106.940,279.692 106.263,275.505 108.439 C 275.123 108.638,274.538 108.800,274.205 108.800 C 273.872 108.800,273.600 108.980,273.600 109.200 C 273.600 109.420,273.410 109.600,273.178 109.600 C 272.946 109.600,271.717 110.306,270.447 111.168 C 269.177 112.031,267.477 113.111,266.669 113.568 C 265.861 114.026,264.534 114.777,263.721 115.238 C 259.392 117.689,255.457 118.532,247.522 118.708 C 236.821 118.946,235.060 118.487,221.950 112.051 C 217.412 109.823,213.418 108.000,213.074 108.000 C 212.729 108.000,212.348 107.839,212.226 107.642 C 211.673 106.748,202.713 106.152,199.446 106.794 C 195.131 107.640,192.528 108.760,188.200 111.632 C 180.014 117.063,174.295 118.800,164.600 118.800 C 155.386 118.800,153.403 118.247,141.003 112.215 C 136.381 109.967,131.880 107.934,131.000 107.696 C 130.120 107.458,128.659 107.069,127.754 106.832 C 125.788 106.316,118.057 106.346,115.800 106.878 M287.600 125.000 L 287.600 131.600 281.200 131.600 L 274.800 131.600 274.800 125.267 C 274.800 121.783,274.920 118.813,275.067 118.667 C 275.213 118.520,278.093 118.400,281.467 118.400 L 287.600 118.400 287.600 125.000 M125.110 125.100 L 125.000 131.400 118.800 131.400 L 112.600 131.400 112.490 125.100 L 112.380 118.800 118.800 118.800 L 125.220 118.800 125.110 125.100 M218.710 125.100 L 218.600 131.400 212.400 131.400 L 206.200 131.400 206.090 125.100 L 205.980 118.800 212.400 118.800 L 218.820 118.800 218.710 125.100 M93.910 137.500 L 93.800 143.800 87.500 143.910 L 81.200 144.020 81.200 137.610 L 81.200 131.200 87.610 131.200 L 94.020 131.200 93.910 137.500 M301.304 144.179 C 302.131 144.349,302.906 144.649,303.027 144.844 C 303.148 145.040,303.587 145.200,304.003 145.200 C 305.694 145.200,312.142 149.020,315.093 151.770 C 318.984 155.396,323.600 162.473,323.600 164.811 C 323.600 165.219,323.760 165.652,323.956 165.773 C 324.846 166.323,324.931 173.708,324.931 250.000 C 324.931 326.292,324.846 333.677,323.956 334.227 C 323.760 334.348,323.600 334.799,323.600 335.229 C 323.600 335.659,323.441 336.323,323.247 336.705 C 323.052 337.087,322.651 337.940,322.356 338.600 C 318.647 346.878,310.749 353.217,300.880 355.837 C 297.711 356.679,102.317 356.681,99.086 355.839 C 89.426 353.323,82.520 347.787,77.944 338.892 C 77.095 337.240,76.400 335.565,76.400 335.168 C 76.400 334.772,76.220 334.336,76.000 334.200 C 75.780 334.064,75.600 333.344,75.600 332.600 C 75.600 331.856,75.420 331.136,75.200 331.000 C 74.624 330.644,74.650 171.674,75.226 169.446 C 76.680 163.824,77.784 161.142,80.020 157.796 C 83.532 152.543,89.032 147.978,94.200 146.028 C 95.520 145.530,96.960 144.980,97.400 144.807 C 97.840 144.633,98.920 144.313,99.800 144.095 C 101.715 143.622,298.991 143.704,301.304 144.179 M103.000 156.800 L 102.200 157.144 103.000 157.144 C 103.440 157.144,104.160 156.989,104.600 156.800 L 105.400 156.456 104.600 156.456 C 104.160 156.456,103.440 156.611,103.000 156.800 M227.200 156.771 C 227.200 156.976,226.975 157.381,226.700 157.671 C 226.425 157.962,225.708 158.859,225.106 159.665 C 224.504 160.471,223.784 161.371,223.506 161.665 C 223.228 161.959,221.385 164.090,219.411 166.400 C 215.148 171.390,203.916 182.663,199.298 186.588 C 195.658 189.682,195.648 189.837,199.029 190.447 C 200.333 190.682,202.120 191.021,203.000 191.200 C 203.880 191.379,205.680 191.739,207.000 192.000 C 208.320 192.261,210.210 192.649,211.200 192.863 C 212.190 193.077,213.663 193.348,214.474 193.465 C 219.173 194.147,221.672 200.767,218.496 204.122 C 217.893 204.760,213.935 207.886,209.700 211.069 C 201.709 217.076,201.607 217.176,202.608 218.006 C 202.942 218.284,204.022 219.584,205.008 220.895 L 206.800 223.279 206.800 220.034 C 206.800 214.903,208.907 212.400,213.225 212.400 C 215.207 212.400,215.605 212.628,228.222 220.981 L 241.182 229.562 243.891 228.969 C 245.381 228.643,247.590 228.185,248.800 227.951 C 250.997 227.527,252.254 227.273,256.400 226.416 C 260.415 225.586,263.185 225.458,264.327 226.050 C 268.640 228.285,268.816 229.961,266.148 243.431 L 264.295 252.782 272.621 265.291 C 281.400 278.481,282.046 279.747,281.282 282.266 C 279.975 286.570,276.466 287.766,269.064 286.427 C 264.058 285.521,255.177 284.367,254.837 284.577 C 254.643 284.697,254.358 286.461,254.202 288.497 C 253.800 293.732,252.676 297.846,250.348 302.600 C 246.593 310.268,240.027 316.814,232.430 320.463 C 227.158 322.996,224.699 323.714,217.600 324.796 C 215.950 325.047,213.949 325.421,213.154 325.626 C 212.358 325.832,211.236 326.000,210.659 326.000 C 210.083 326.000,208.844 326.171,207.906 326.380 C 206.968 326.590,204.940 326.955,203.400 327.192 C 201.860 327.430,199.700 327.791,198.600 327.994 C 184.792 330.545,179.457 330.925,176.200 329.591 C 172.701 328.157,171.177 327.191,168.966 325.006 C 165.058 321.143,162.804 315.317,163.373 310.544 C 163.864 306.415,163.835 305.515,163.200 305.192 C 162.870 305.024,161.790 304.500,160.800 304.026 C 157.859 302.619,154.786 299.358,150.985 293.608 C 150.333 292.622,149.587 291.542,149.326 291.208 C 147.332 288.649,146.000 286.736,146.000 286.430 C 146.000 286.230,145.855 286.007,145.677 285.933 C 145.499 285.860,144.742 284.904,143.995 283.809 C 143.248 282.714,142.409 281.544,142.130 281.209 C 140.049 278.704,130.632 264.792,129.873 263.100 C 128.018 258.965,127.805 258.367,126.848 254.600 C 125.707 250.108,125.521 244.608,126.340 239.600 C 127.195 234.379,127.281 233.997,127.644 233.773 C 127.840 233.652,128.000 233.276,128.000 232.938 C 128.000 231.941,130.580 226.816,132.577 223.848 C 133.595 222.334,134.370 221.036,134.298 220.965 C 134.226 220.893,133.229 222.254,132.081 223.989 C 130.127 226.943,128.427 228.400,126.933 228.400 C 126.634 228.400,126.077 228.572,125.695 228.783 C 122.809 230.375,101.502 235.626,92.400 236.988 C 91.630 237.103,90.342 237.309,89.538 237.446 C 88.325 237.653,88.044 237.568,87.885 236.948 C 87.437 235.204,87.605 326.411,88.053 328.294 C 89.921 336.145,95.140 341.380,102.877 343.167 C 105.526 343.778,294.474 343.778,297.123 343.167 C 304.953 341.359,310.056 336.239,311.947 328.294 C 312.593 325.576,312.593 174.424,311.947 171.706 C 310.052 163.743,305.057 158.748,297.094 156.853 C 294.692 156.282,227.200 156.203,227.200 156.771 M92.993 162.007 C 92.137 162.883,91.546 163.600,91.679 163.600 C 92.017 163.600,94.858 160.724,94.687 160.554 C 94.611 160.477,93.848 161.131,92.993 162.007 M169.105 168.683 C 169.602 168.779,170.322 168.775,170.705 168.675 C 171.087 168.575,170.680 168.496,169.800 168.501 C 168.920 168.505,168.607 168.587,169.105 168.683 M165.711 169.807 C 165.234 170.141,164.459 170.996,163.987 171.707 L 163.131 173.000 163.984 172.000 C 164.453 171.450,165.324 170.596,165.919 170.102 C 167.148 169.081,167.015 168.894,165.711 169.807 M87.876 172.010 C 87.730 172.555,87.628 173.540,87.649 174.200 C 87.680 175.157,87.759 175.036,88.042 173.600 C 88.429 171.633,88.302 170.417,87.876 172.010 M177.445 175.012 C 177.810 175.569,178.186 175.947,178.282 175.851 C 178.519 175.614,177.484 174.000,177.095 174.000 C 176.922 174.000,177.080 174.456,177.445 175.012 M179.045 177.412 C 179.410 177.969,179.786 178.347,179.882 178.251 C 180.119 178.014,179.084 176.400,178.695 176.400 C 178.522 176.400,178.680 176.856,179.045 177.412 M182.015 181.400 C 182.017 181.620,182.386 182.250,182.836 182.800 C 183.379 183.464,183.515 183.531,183.240 183.000 C 182.566 181.695,182.012 180.972,182.015 181.400 M155.521 184.300 C 153.379 187.560,153.115 188.000,153.301 188.000 C 153.476 188.000,154.041 187.195,156.178 183.900 C 156.571 183.295,156.805 182.800,156.699 182.800 C 156.593 182.800,156.063 183.475,155.521 184.300 M150.000 188.406 C 149.578 188.682,149.815 188.723,150.800 188.542 C 152.525 188.225,152.851 187.998,151.567 188.006 C 151.035 188.009,150.330 188.189,150.000 188.406 M187.633 188.143 C 187.725 188.221,188.430 188.401,189.200 188.542 C 190.185 188.723,190.422 188.682,190.000 188.406 C 189.458 188.050,187.237 187.803,187.633 188.143 M146.000 189.206 C 145.578 189.482,145.815 189.523,146.800 189.342 C 148.525 189.025,148.851 188.798,147.567 188.806 C 147.035 188.809,146.330 188.989,146.000 189.206 M192.400 189.200 C 193.942 189.694,194.764 189.694,194.000 189.200 C 193.670 188.987,192.950 188.827,192.400 188.846 L 191.400 188.880 192.400 189.200 M142.000 190.018 C 141.562 190.315,141.724 190.352,142.600 190.156 C 144.071 189.827,144.390 189.598,143.367 189.606 C 142.945 189.609,142.330 189.795,142.000 190.018 M138.000 190.800 C 137.205 191.314,138.204 191.314,139.400 190.800 L 140.200 190.456 139.400 190.434 C 138.960 190.422,138.330 190.587,138.000 190.800 M134.000 191.600 C 133.236 192.094,134.058 192.094,135.600 191.600 L 136.600 191.280 135.600 191.246 C 135.050 191.227,134.330 191.387,134.000 191.600 M130.200 192.400 C 129.908 192.873,130.299 192.873,131.400 192.400 C 132.171 192.069,132.169 192.055,131.324 192.028 C 130.842 192.013,130.336 192.180,130.200 192.400 M126.200 193.200 C 125.908 193.673,126.299 193.673,127.400 193.200 C 128.171 192.869,128.169 192.855,127.324 192.828 C 126.842 192.813,126.336 192.980,126.200 193.200 M121.317 195.300 C 118.509 198.370,118.653 202.456,121.657 204.997 L 122.600 205.794 121.747 204.797 C 118.977 201.560,118.967 198.307,121.717 195.300 C 122.169 194.805,122.449 194.400,122.339 194.400 C 122.229 194.400,121.769 194.805,121.317 195.300 M132.544 213.109 C 132.860 213.621,135.200 215.353,135.200 215.075 C 135.200 214.976,134.539 214.391,133.732 213.775 C 132.924 213.159,132.389 212.859,132.544 213.109 M136.025 218.969 L 134.650 220.600 136.205 219.113 C 137.060 218.296,137.679 217.562,137.580 217.483 C 137.481 217.403,136.781 218.072,136.025 218.969 M161.400 219.394 C 153.591 220.771,147.564 224.653,143.260 231.078 C 142.347 232.441,141.600 233.658,141.600 233.782 C 141.600 233.907,141.263 234.772,140.851 235.704 C 139.469 238.831,139.096 240.971,139.091 245.814 C 139.082 253.607,140.038 255.815,148.692 268.000 C 155.696 277.862,155.658 277.810,157.824 280.776 C 158.717 281.999,160.727 284.800,162.291 287.000 C 166.496 292.917,168.353 294.166,171.318 293.073 C 173.281 292.349,173.679 291.999,175.735 289.200 C 176.785 287.770,177.862 286.330,178.128 286.000 C 178.394 285.670,178.984 284.860,179.440 284.200 C 179.895 283.540,182.233 280.243,184.634 276.873 C 187.035 273.503,189.856 269.543,190.903 268.073 C 197.882 258.267,199.178 255.872,200.250 250.800 C 202.095 242.078,198.680 231.592,192.205 226.096 C 189.606 223.889,189.048 223.490,187.043 222.398 C 181.075 219.147,170.096 217.861,161.400 219.394 M175.110 237.500 L 175.000 243.800 168.700 243.910 L 162.400 244.020 162.400 237.610 L 162.400 231.200 168.810 231.200 L 175.220 231.200 175.110 237.500 M162.710 256.300 L 162.600 262.600 156.300 262.710 L 150.000 262.820 150.000 256.410 L 150.000 250.000 156.410 250.000 L 162.820 250.000 162.710 256.300 M187.510 256.300 L 187.400 262.600 181.200 262.600 L 175.000 262.600 174.890 256.300 L 174.780 250.000 181.200 250.000 L 187.620 250.000 187.510 256.300 M212.994 254.300 C 212.706 255.732,212.045 257.965,211.574 259.100 C 211.368 259.595,211.035 260.405,210.834 260.900 C 210.632 261.395,210.228 262.385,209.936 263.100 C 209.644 263.815,209.302 264.400,209.177 264.400 C 209.052 264.400,208.702 265.030,208.400 265.800 C 208.098 266.570,207.704 267.200,207.525 267.200 C 207.346 267.200,207.200 267.470,207.200 267.800 C 207.200 268.130,207.063 268.400,206.895 268.400 C 206.727 268.400,206.412 268.748,206.195 269.173 C 205.978 269.598,203.640 272.940,201.000 276.600 C 198.360 280.260,195.475 284.305,194.589 285.589 C 193.704 286.872,192.541 288.494,192.007 289.191 C 190.992 290.515,189.387 292.777,186.998 296.251 C 184.686 299.613,182.563 301.806,180.043 303.438 C 177.340 305.188,177.217 305.479,176.931 310.827 C 176.564 317.661,178.139 318.078,193.993 315.345 C 197.180 314.796,200.960 314.171,202.393 313.955 C 204.838 313.589,205.917 313.414,212.000 312.400 C 213.320 312.180,215.435 311.834,216.700 311.630 C 217.965 311.427,219.810 311.056,220.800 310.806 C 221.790 310.556,223.095 310.251,223.700 310.130 C 224.305 310.009,224.800 309.750,224.800 309.555 C 224.800 309.360,225.065 309.200,225.388 309.200 C 229.399 309.200,236.985 301.009,240.021 293.400 C 241.010 290.919,241.619 280.659,240.824 279.864 C 240.591 279.631,240.400 278.947,240.400 278.344 C 240.400 277.741,240.220 277.136,240.000 277.000 C 239.780 276.864,239.600 276.414,239.600 276.001 C 239.600 268.598,214.274 247.942,212.994 254.300 M225.200 268.800 L 225.200 275.200 218.800 275.200 L 212.400 275.200 212.400 268.800 L 212.400 262.400 218.800 262.400 L 225.200 262.400 225.200 268.800 M231.400 293.800 L 231.400 300.200 225.000 300.200 L 218.600 300.200 218.489 294.218 C 218.344 286.407,217.627 287.159,225.091 287.290 L 231.400 287.400 231.400 293.800 M206.400 300.000 L 206.400 306.400 200.000 306.400 L 193.600 306.400 193.600 300.000 L 193.600 293.600 200.000 293.600 L 206.400 293.600 206.400 300.000 " stroke="none" fill="#d58570" fill-rule="evenodd"></path><path id="path2" d="M93.859 75.700 C 93.744 79.275,93.453 83.370,93.213 84.800 C 92.973 86.230,92.673 88.076,92.546 88.903 C 92.419 89.729,92.155 90.505,91.958 90.626 C 91.761 90.748,91.600 91.210,91.600 91.653 C 91.600 92.495,89.954 97.658,88.970 99.900 C 88.657 100.615,88.130 101.812,87.800 102.560 C 86.505 105.497,86.949 105.384,97.784 100.017 C 102.245 97.808,106.178 96.000,106.524 96.000 C 106.870 96.000,107.264 95.820,107.400 95.600 C 107.536 95.380,108.076 95.200,108.600 95.200 C 109.124 95.200,109.652 95.039,109.774 94.842 C 110.374 93.872,127.507 93.190,130.800 94.005 C 136.698 95.465,135.857 95.135,145.000 99.585 C 149.180 101.619,153.320 103.552,154.200 103.879 C 155.080 104.207,156.160 104.625,156.600 104.810 C 163.137 107.552,172.792 105.884,180.988 100.597 C 184.688 98.210,188.806 96.000,189.555 96.000 C 189.806 96.000,190.323 95.838,190.705 95.639 C 191.087 95.440,192.210 95.068,193.200 94.812 C 194.190 94.556,195.553 94.178,196.228 93.973 C 197.925 93.458,210.137 93.503,212.154 94.032 C 213.059 94.269,214.520 94.650,215.400 94.877 C 217.771 95.491,217.964 95.575,226.200 99.597 C 239.094 105.892,243.942 107.023,251.200 105.429 C 256.121 104.348,256.913 103.999,262.215 100.579 C 266.068 98.094,269.373 96.427,272.000 95.645 C 272.990 95.350,274.160 94.964,274.600 94.786 C 277.837 93.481,291.039 93.477,294.200 94.779 C 294.640 94.960,295.810 95.350,296.800 95.645 C 299.375 96.411,302.691 98.071,306.495 100.496 C 311.971 103.987,313.057 104.336,312.121 102.299 C 311.893 101.805,311.482 100.860,311.207 100.200 C 310.932 99.540,310.548 98.687,310.353 98.305 C 310.159 97.923,310.000 97.259,310.000 96.829 C 310.000 96.399,309.820 95.936,309.600 95.800 C 309.380 95.664,309.200 95.124,309.200 94.600 C 309.200 94.076,309.020 93.536,308.800 93.400 C 308.580 93.264,308.400 92.634,308.400 92.000 C 308.400 91.366,308.239 90.748,308.042 90.626 C 307.845 90.505,307.581 89.729,307.454 88.903 C 307.327 88.076,307.027 86.230,306.787 84.800 C 306.547 83.370,306.256 79.275,306.141 75.700 L 305.931 69.200 200.000 69.200 L 94.069 69.200 93.859 75.700 " stroke="none" fill="#e3f0fb" fill-rule="evenodd"></path><path id="path3" d="M72.523 19.979 C 70.025 21.113,69.200 23.002,69.200 27.585 L 69.200 31.201 200.100 31.101 L 331.000 31.000 330.992 27.600 C 330.983 23.450,330.123 21.453,327.765 20.107 L 326.200 19.213 200.200 19.215 C 77.200 19.218,74.160 19.236,72.523 19.979 M146.900 69.100 C 176.105 69.157,223.895 69.157,253.100 69.100 C 282.305 69.043,258.410 68.997,200.000 68.997 C 141.590 68.997,117.695 69.043,146.900 69.100 M93.709 79.600 C 93.709 80.590,93.787 80.995,93.882 80.500 C 93.978 80.005,93.978 79.195,93.882 78.700 C 93.787 78.205,93.709 78.610,93.709 79.600 M306.101 79.800 C 306.105 80.680,306.187 80.993,306.283 80.495 C 306.379 79.998,306.375 79.278,306.275 78.895 C 306.175 78.513,306.096 78.920,306.101 79.800 M92.846 85.667 C 92.821 86.034,92.696 86.664,92.570 87.067 C 92.352 87.762,92.363 87.763,92.797 87.087 C 93.048 86.696,93.173 86.066,93.073 85.687 C 92.911 85.068,92.888 85.066,92.846 85.667 M113.200 94.018 C 112.762 94.315,112.924 94.352,113.800 94.156 C 115.271 93.827,115.590 93.598,114.567 93.606 C 114.145 93.609,113.530 93.795,113.200 94.018 M196.400 94.018 C 195.962 94.315,196.124 94.352,197.000 94.156 C 198.471 93.827,198.790 93.598,197.767 93.606 C 197.345 93.609,196.730 93.795,196.400 94.018 M104.600 156.800 C 104.160 156.989,103.213 157.156,102.495 157.172 C 101.777 157.187,100.877 157.360,100.495 157.556 C 100.113 157.752,98.915 158.336,97.834 158.853 C 92.695 161.312,89.275 166.309,88.153 173.000 C 87.589 176.364,87.324 234.728,87.864 236.745 C 88.088 237.581,88.282 237.661,89.558 237.443 C 90.351 237.308,91.630 237.103,92.400 236.988 C 93.908 236.762,95.481 236.464,102.000 235.168 C 109.320 233.713,123.861 229.795,125.695 228.783 C 126.077 228.572,126.634 228.400,126.933 228.400 C 128.359 228.400,130.135 226.951,131.760 224.461 C 132.720 222.990,134.292 220.914,135.253 219.846 C 136.214 218.778,137.119 217.700,137.264 217.451 C 137.421 217.183,136.219 216.022,134.309 214.599 C 132.539 213.280,130.890 212.014,130.645 211.787 C 130.400 211.560,129.570 210.938,128.800 210.406 C 128.030 209.874,127.310 209.331,127.200 209.200 C 127.090 209.069,126.370 208.529,125.600 208.000 C 124.830 207.471,124.110 206.939,124.000 206.817 C 123.890 206.695,123.123 206.091,122.296 205.475 C 120.558 204.179,119.200 201.776,119.200 199.996 C 119.200 197.952,121.403 194.400,122.670 194.400 C 122.961 194.400,123.200 194.220,123.200 194.000 C 123.200 193.780,123.819 193.600,124.576 193.600 C 125.333 193.600,126.064 193.420,126.200 193.200 C 126.336 192.980,127.211 192.800,128.144 192.800 C 129.077 192.800,130.011 192.638,130.220 192.441 C 130.429 192.244,131.320 191.983,132.200 191.861 C 133.080 191.740,134.700 191.457,135.800 191.233 C 136.900 191.009,138.745 190.640,139.900 190.413 C 141.055 190.186,142.855 189.826,143.900 189.613 C 147.915 188.795,150.254 188.351,151.663 188.141 C 153.027 187.938,153.364 187.565,156.623 182.661 C 158.546 179.768,160.273 177.340,160.460 177.267 C 160.647 177.193,160.800 176.912,160.800 176.642 C 160.800 176.372,161.115 175.802,161.500 175.375 C 161.885 174.949,162.470 174.069,162.800 173.421 C 164.664 169.757,168.189 167.857,171.487 168.739 C 173.250 169.210,176.000 171.417,176.000 172.360 C 176.000 172.602,176.180 172.800,176.400 172.800 C 176.620 172.800,176.800 173.070,176.800 173.400 C 176.800 173.730,176.950 174.000,177.132 174.000 C 177.315 174.000,177.720 174.495,178.032 175.100 C 178.345 175.705,178.915 176.549,179.300 176.975 C 179.685 177.402,180.000 177.987,180.000 178.275 C 180.000 178.564,180.168 178.800,180.373 178.800 C 180.578 178.800,180.860 179.159,180.999 179.598 C 181.138 180.036,181.475 180.621,181.748 180.898 C 182.021 181.174,183.198 182.868,184.364 184.663 C 186.364 187.740,186.580 187.938,188.143 188.140 C 189.874 188.363,193.089 188.972,194.800 189.402 C 196.501 189.829,210.646 176.601,219.400 166.396 C 221.380 164.088,223.228 161.959,223.506 161.665 C 223.784 161.371,224.504 160.471,225.106 159.665 C 225.708 158.859,226.425 157.962,226.700 157.671 C 226.975 157.381,227.200 156.976,227.200 156.771 C 227.200 156.296,105.707 156.324,104.600 156.800 M169.200 189.000 C 169.200 189.330,169.020 189.600,168.800 189.600 C 168.580 189.600,168.400 189.830,168.400 190.112 C 168.400 190.393,168.040 190.883,167.600 191.200 C 167.160 191.517,166.800 192.057,166.800 192.400 C 166.800 192.743,166.440 193.283,166.000 193.600 C 165.560 193.917,165.200 194.457,165.200 194.800 C 165.200 195.143,164.840 195.683,164.400 196.000 C 163.960 196.317,163.600 196.815,163.600 197.106 C 163.600 197.837,161.774 199.600,161.018 199.600 C 160.678 199.600,160.400 199.780,160.400 200.000 C 160.400 200.220,159.860 200.400,159.200 200.400 C 158.540 200.400,158.000 200.580,158.000 200.800 C 158.000 201.020,157.201 201.200,156.224 201.200 C 155.247 201.200,154.336 201.380,154.200 201.600 C 154.064 201.820,153.164 202.000,152.200 202.000 C 151.236 202.000,150.336 202.180,150.200 202.400 C 150.064 202.620,149.153 202.800,148.176 202.800 C 147.199 202.800,146.400 202.980,146.400 203.200 C 146.400 203.420,145.680 203.600,144.800 203.600 C 143.920 203.600,143.200 203.703,143.200 203.829 C 143.200 204.238,144.331 205.200,144.811 205.200 C 145.068 205.200,145.761 205.695,146.350 206.300 C 148.187 208.186,152.000 209.333,152.000 208.000 C 152.000 207.780,152.540 207.600,153.200 207.600 C 153.860 207.600,154.400 207.420,154.400 207.200 C 154.400 206.980,155.120 206.800,156.000 206.800 C 156.880 206.800,157.600 206.620,157.600 206.400 C 157.600 206.148,160.272 206.000,164.817 206.000 C 171.481 206.000,172.099 205.939,172.892 205.200 C 173.364 204.760,173.987 204.400,174.275 204.400 C 174.564 204.400,174.800 204.242,174.800 204.049 C 174.800 203.855,175.340 203.473,176.000 203.200 C 176.660 202.927,177.200 202.584,177.200 202.438 C 177.200 202.292,177.734 201.857,178.387 201.471 L 179.574 200.770 177.587 198.825 C 176.494 197.755,175.600 196.631,175.600 196.328 C 175.600 196.025,175.240 195.517,174.800 195.200 C 174.360 194.883,174.000 194.369,174.000 194.059 C 174.000 193.748,173.684 193.203,173.297 192.847 C 172.911 192.491,172.340 191.705,172.030 191.100 C 171.719 190.495,171.315 190.000,171.132 190.000 C 170.950 190.000,170.800 189.749,170.800 189.443 C 170.800 189.136,170.515 188.776,170.167 188.643 C 169.273 188.300,169.200 188.327,169.200 189.000 " stroke="none" fill="#e7bc99" fill-rule="evenodd"></path><path id="path4" d="M71.696 19.598 C 70.366 20.409,68.804 22.548,68.801 23.563 C 68.801 23.873,69.214 23.342,69.721 22.384 C 70.351 21.193,71.193 20.351,72.384 19.721 C 73.342 19.214,73.873 18.801,73.563 18.801 C 73.253 18.802,72.413 19.161,71.696 19.598 M327.792 19.683 C 328.667 20.196,329.804 21.333,330.317 22.208 C 330.948 23.284,331.164 23.476,330.985 22.800 C 330.643 21.512,328.488 19.357,327.200 19.015 C 326.524 18.836,326.716 19.052,327.792 19.683 M331.340 27.600 C 331.340 29.470,331.409 30.235,331.493 29.300 C 331.577 28.365,331.577 26.835,331.493 25.900 C 331.409 24.965,331.340 25.730,331.340 27.600 M134.500 31.500 C 170.525 31.556,229.475 31.556,265.500 31.500 C 301.525 31.444,272.050 31.398,200.000 31.398 C 127.950 31.398,98.475 31.444,134.500 31.500 M134.300 43.900 C 170.435 43.956,229.565 43.956,265.700 43.900 C 301.835 43.844,272.270 43.798,200.000 43.798 C 127.730 43.798,98.165 43.844,134.300 43.900 M68.828 51.175 C 68.791 52.445,70.160 54.415,71.848 55.521 L 73.189 56.400 200.094 56.371 C 320.254 56.343,327.064 56.304,328.200 55.641 C 329.554 54.850,331.217 52.609,331.168 51.641 C 331.148 51.256,330.946 51.426,330.662 52.064 C 329.966 53.630,328.792 54.793,327.259 55.433 C 325.217 56.286,74.783 56.286,72.741 55.433 C 71.024 54.716,70.160 53.760,69.433 51.773 C 68.969 50.508,68.851 50.391,68.828 51.175 M93.771 68.932 C 93.659 69.224,93.627 71.069,93.701 73.032 L 93.835 76.600 93.918 72.701 L 94.000 68.802 181.100 68.700 L 268.200 68.598 181.087 68.499 C 108.931 68.417,93.940 68.491,93.771 68.932 M306.081 72.484 C 305.997 76.528,306.558 83.439,307.195 86.200 C 308.837 93.309,309.504 95.730,310.420 97.900 C 310.629 98.395,310.962 99.205,311.159 99.700 C 311.357 100.195,311.822 101.290,312.193 102.132 C 313.336 104.727,311.505 104.156,305.151 99.936 C 292.370 91.446,276.473 91.528,263.300 100.150 C 261.815 101.122,259.430 102.564,258.000 103.354 C 256.570 104.144,255.619 104.793,255.886 104.795 C 256.499 104.801,259.399 103.200,262.941 100.899 C 265.963 98.936,269.892 96.903,271.780 96.325 C 281.324 93.401,287.476 93.401,297.020 96.325 C 298.947 96.915,302.864 98.953,305.976 100.984 C 313.334 105.788,314.247 105.711,311.993 100.481 C 311.117 98.449,310.400 96.441,310.400 96.017 C 310.400 95.594,310.241 95.149,310.046 95.029 C 309.851 94.908,309.600 94.313,309.488 93.705 C 309.376 93.097,309.013 91.520,308.681 90.200 C 307.334 84.843,306.450 78.185,306.265 72.000 L 306.163 68.600 306.081 72.484 M93.057 79.900 C 92.920 80.725,92.807 82.009,92.804 82.754 C 92.802 83.498,92.636 84.758,92.435 85.554 C 92.234 86.349,91.857 87.990,91.597 89.200 C 90.711 93.334,89.150 98.023,87.352 101.956 C 86.608 103.582,86.000 105.067,86.000 105.256 C 86.000 105.761,87.906 105.676,88.226 105.157 C 88.411 104.859,88.222 104.803,87.650 104.984 C 86.631 105.307,86.539 104.668,87.356 102.961 C 90.342 96.728,92.776 88.040,93.424 81.300 C 93.718 78.250,93.479 77.342,93.057 79.900 M113.400 94.176 C 110.036 94.851,106.609 95.973,103.800 97.321 C 98.540 99.844,90.858 103.791,90.977 103.910 C 91.046 103.979,94.140 102.533,97.851 100.696 C 105.379 96.969,108.064 95.856,111.000 95.241 C 112.100 95.011,113.845 94.638,114.877 94.411 C 122.057 92.838,133.122 94.490,140.949 98.305 C 142.901 99.256,144.580 99.954,144.679 99.855 C 144.924 99.609,137.406 96.000,136.650 96.000 C 136.319 96.000,135.949 95.841,135.829 95.646 C 135.708 95.451,135.113 95.194,134.505 95.074 C 127.881 93.767,126.517 93.619,121.400 93.656 C 118.320 93.677,114.720 93.912,113.400 94.176 M196.800 94.227 C 190.663 95.451,186.935 96.989,181.800 100.414 C 180.260 101.442,178.398 102.592,177.663 102.971 C 176.927 103.349,176.417 103.750,176.528 103.861 C 176.741 104.074,176.912 103.977,181.400 101.110 C 185.382 98.566,187.643 97.355,189.864 96.581 C 201.226 92.616,212.237 93.257,222.600 98.486 C 224.556 99.473,226.000 100.037,226.000 99.813 C 226.000 99.604,219.017 96.272,217.400 95.710 C 211.379 93.617,202.910 93.008,196.800 94.227 M145.200 100.213 C 145.200 100.723,156.115 105.617,157.149 105.571 C 157.507 105.555,156.900 105.217,155.800 104.821 C 154.700 104.425,151.913 103.179,149.608 102.051 C 145.133 99.862,145.200 99.890,145.200 100.213 M228.000 101.004 C 228.000 101.480,237.339 105.611,238.349 105.580 C 238.707 105.570,237.920 105.142,236.600 104.630 C 235.280 104.119,232.865 103.047,231.234 102.250 C 228.109 100.722,228.000 100.680,228.000 101.004 M173.400 104.800 C 171.787 105.395,171.609 105.544,172.476 105.569 C 173.068 105.586,173.664 105.420,173.800 105.200 C 173.936 104.980,174.386 104.800,174.800 104.800 C 175.214 104.800,175.664 104.620,175.800 104.400 C 176.130 103.866,175.766 103.927,173.400 104.800 M253.214 105.270 C 252.452 105.488,250.742 105.809,249.414 105.983 L 247.000 106.299 249.000 106.332 C 250.977 106.364,254.493 105.640,255.047 105.086 C 255.409 104.724,254.959 104.769,253.214 105.270 M158.400 106.003 C 158.943 106.351,163.960 106.596,163.567 106.256 C 163.475 106.177,162.140 106.001,160.600 105.865 C 158.747 105.702,158.003 105.749,158.400 106.003 M167.800 106.000 L 165.800 106.274 168.000 106.331 C 169.210 106.362,170.470 106.213,170.800 106.000 C 171.495 105.551,171.076 105.551,167.800 106.000 M239.600 106.003 C 240.143 106.351,245.160 106.596,244.767 106.256 C 244.675 106.177,243.340 106.001,241.800 105.865 C 239.947 105.702,239.203 105.749,239.600 106.003 M120.311 106.293 C 121.251 106.378,122.691 106.377,123.511 106.291 C 124.330 106.205,123.560 106.136,121.800 106.137 C 120.040 106.139,119.370 106.209,120.311 106.293 M202.700 106.289 C 203.415 106.378,204.585 106.378,205.300 106.289 C 206.015 106.201,205.430 106.128,204.000 106.128 C 202.570 106.128,201.985 106.201,202.700 106.289 M113.220 107.039 C 112.021 107.361,107.341 109.433,102.820 111.644 C 98.299 113.855,94.240 115.808,93.800 115.984 C 91.327 116.973,90.924 117.230,92.200 117.003 C 92.860 116.886,97.090 114.975,101.600 112.757 C 106.110 110.539,110.160 108.583,110.600 108.412 C 111.040 108.240,111.903 107.897,112.519 107.650 C 113.134 107.402,114.124 107.187,114.719 107.172 C 115.313 107.156,116.160 106.989,116.600 106.800 C 117.980 106.207,115.720 106.367,113.220 107.039 M128.000 106.839 C 128.770 107.069,130.120 107.453,131.000 107.693 C 131.880 107.932,136.402 109.977,141.048 112.237 C 149.017 116.114,153.725 118.028,155.166 117.978 C 155.515 117.966,154.270 117.442,152.400 116.813 C 150.530 116.185,145.897 114.127,142.105 112.240 C 133.627 108.023,130.914 106.906,128.486 106.633 C 126.679 106.429,126.659 106.438,128.000 106.839 M197.800 106.664 C 195.517 107.151,191.911 108.701,189.600 110.190 C 182.897 114.506,180.919 115.516,176.200 117.034 C 174.660 117.530,173.670 117.947,174.000 117.962 C 176.084 118.057,183.473 114.799,187.742 111.902 C 191.935 109.057,194.462 107.925,199.000 106.859 C 200.587 106.486,199.478 106.305,197.800 106.664 M208.600 106.769 C 209.040 106.975,209.974 107.156,210.676 107.172 C 211.378 107.187,212.064 107.380,212.200 107.600 C 212.336 107.820,212.729 108.000,213.074 108.000 C 213.418 108.000,217.412 109.823,221.950 112.052 C 229.807 115.910,234.994 118.038,236.370 117.968 C 236.717 117.950,235.650 117.497,234.000 116.961 C 232.350 116.426,227.490 114.267,223.200 112.164 C 218.910 110.061,215.040 108.196,214.600 108.020 C 214.160 107.844,213.328 107.512,212.752 107.282 C 211.361 106.728,207.493 106.250,208.600 106.769 M278.200 106.972 C 275.177 107.826,272.645 109.004,270.066 110.755 C 263.432 115.260,259.205 117.028,252.200 118.226 L 249.000 118.773 252.000 118.617 C 255.163 118.452,261.034 116.759,263.721 115.238 C 264.534 114.777,265.861 114.026,266.669 113.568 C 267.477 113.111,269.177 112.031,270.447 111.168 C 271.717 110.306,272.946 109.600,273.178 109.600 C 273.410 109.600,273.600 109.420,273.600 109.200 C 273.600 108.980,273.872 108.800,274.205 108.800 C 274.538 108.800,275.123 108.638,275.505 108.439 C 279.692 106.263,295.182 106.940,295.198 109.300 C 295.199 109.465,295.390 109.600,295.622 109.600 C 295.854 109.600,297.104 110.320,298.400 111.200 C 299.696 112.080,300.869 112.800,301.006 112.800 C 301.143 112.800,302.008 113.307,302.928 113.927 C 306.797 116.534,312.087 118.249,318.200 118.879 L 322.600 119.332 325.647 122.462 C 331.688 128.668,336.566 135.936,339.296 142.800 C 339.514 143.350,339.852 144.113,340.047 144.495 C 340.241 144.877,340.400 145.541,340.400 145.971 C 340.400 146.401,340.580 146.864,340.800 147.000 C 341.020 147.136,341.200 147.741,341.200 148.344 C 341.200 148.947,341.362 149.611,341.559 149.820 C 341.945 150.228,342.217 151.878,342.764 157.122 C 343.225 161.536,343.785 161.934,343.437 157.600 C 343.092 153.294,341.231 145.309,340.318 144.220 C 340.143 144.011,340.000 143.594,340.000 143.293 C 340.000 138.639,324.971 118.816,321.433 118.805 C 317.986 118.794,311.992 117.515,308.100 115.960 C 305.308 114.844,304.410 114.343,299.000 110.882 C 292.642 106.816,284.303 105.248,278.200 106.972 M88.600 117.600 C 87.867 117.915,87.884 117.946,88.800 117.966 C 89.350 117.978,90.070 117.813,90.400 117.600 C 91.187 117.091,89.784 117.091,88.600 117.600 M84.000 118.400 C 82.609 118.693,82.611 118.695,84.400 118.719 C 85.390 118.733,86.560 118.589,87.000 118.400 C 88.032 117.956,86.107 117.956,84.000 118.400 M156.800 118.400 C 157.350 118.576,158.610 118.716,159.600 118.710 L 161.400 118.700 159.600 118.380 C 158.610 118.203,157.350 118.064,156.800 118.070 L 155.800 118.080 156.800 118.400 M169.400 118.400 L 167.800 118.686 169.600 118.703 C 170.590 118.713,171.850 118.576,172.400 118.400 C 173.745 117.969,171.806 117.969,169.400 118.400 M238.000 118.400 C 238.550 118.576,239.810 118.717,240.800 118.714 L 242.600 118.708 241.000 118.377 C 238.782 117.918,236.549 117.935,238.000 118.400 M275.067 118.667 C 274.920 118.813,274.800 121.783,274.800 125.267 L 274.800 131.600 281.300 131.511 L 287.800 131.422 281.500 131.301 L 275.200 131.180 275.200 124.970 L 275.200 118.761 281.401 118.880 C 284.811 118.946,287.601 118.865,287.601 118.700 C 287.600 118.329,275.436 118.297,275.067 118.667 M75.791 120.100 C 75.163 120.815,73.322 122.837,71.700 124.593 C 63.338 133.647,57.661 145.801,56.565 157.000 C 56.193 160.794,56.678 160.144,57.178 156.178 C 57.399 154.430,57.775 152.190,58.014 151.200 C 58.253 150.210,58.551 148.860,58.675 148.200 C 58.799 147.540,59.025 146.820,59.178 146.600 C 59.331 146.380,59.706 145.390,60.011 144.400 C 61.718 138.860,67.269 129.827,72.086 124.751 C 76.558 120.038,77.639 118.800,77.282 118.800 C 77.090 118.800,76.418 119.385,75.791 120.100 M112.584 125.100 L 112.600 131.400 118.800 131.400 L 125.000 131.400 125.100 125.100 L 125.200 118.800 124.990 125.000 L 124.780 131.200 118.800 131.200 L 112.820 131.200 112.694 125.000 L 112.569 118.799 112.584 125.100 M206.184 125.100 L 206.200 131.400 212.300 131.416 L 218.401 131.432 212.411 131.306 L 206.420 131.179 206.294 124.989 L 206.169 118.799 206.184 125.100 M93.688 137.290 L 93.600 143.580 87.300 143.701 L 81.000 143.822 87.313 143.911 C 94.776 144.016,94.059 144.770,93.900 136.982 L 93.777 131.000 93.688 137.290 M99.800 144.095 C 98.920 144.313,97.840 144.633,97.400 144.807 C 96.960 144.980,95.520 145.530,94.200 146.028 C 89.032 147.978,83.532 152.543,80.020 157.796 C 77.784 161.142,76.680 163.824,75.226 169.446 C 74.650 171.674,74.624 330.644,75.200 331.000 C 75.420 331.136,75.600 331.856,75.600 332.600 C 75.600 333.344,75.780 334.064,76.000 334.200 C 76.220 334.336,76.400 334.772,76.400 335.168 C 76.400 336.043,79.025 341.220,80.710 343.669 C 85.511 350.647,96.148 356.508,103.720 356.347 L 106.200 356.295 103.407 355.971 C 90.079 354.428,79.485 345.440,76.097 332.800 C 74.983 328.646,75.024 171.624,76.140 167.400 C 78.922 156.867,86.472 148.960,97.200 145.345 L 100.600 144.200 200.000 144.200 L 299.400 144.200 302.383 145.137 C 313.018 148.476,320.324 155.782,323.663 166.417 L 324.600 169.400 324.600 250.000 L 324.600 330.600 323.663 333.583 C 320.959 342.195,315.665 348.644,308.032 352.624 C 306.840 353.246,306.054 353.818,306.286 353.895 C 309.029 354.810,319.602 344.746,322.356 338.600 C 322.651 337.940,323.052 337.087,323.247 336.705 C 323.441 336.323,323.600 335.659,323.600 335.229 C 323.600 334.799,323.760 334.348,323.956 334.227 C 324.846 333.677,324.931 326.292,324.931 250.000 C 324.931 173.708,324.846 166.323,323.956 165.773 C 323.760 165.652,323.600 165.219,323.600 164.811 C 323.600 162.473,318.984 155.396,315.093 151.770 C 312.142 149.020,305.694 145.200,304.003 145.200 C 303.587 145.200,303.148 145.040,303.027 144.844 C 302.906 144.649,302.131 144.349,301.304 144.179 C 298.991 143.704,101.715 143.622,99.800 144.095 M102.400 156.434 C 98.061 157.555,94.827 159.497,91.996 162.680 C 90.051 164.866,88.157 168.642,87.820 171.000 C 87.653 172.169,87.693 172.384,87.968 171.800 C 88.174 171.360,88.356 170.674,88.372 170.275 C 88.549 165.706,95.292 158.915,101.482 157.072 C 102.583 156.744,129.458 156.562,199.400 156.408 L 295.800 156.196 199.800 156.134 C 143.654 156.098,103.219 156.222,102.400 156.434 M296.600 156.765 C 297.040 156.973,297.807 157.156,298.305 157.172 C 298.803 157.187,299.523 157.360,299.905 157.556 C 300.287 157.752,301.472 158.329,302.538 158.839 C 305.014 160.022,308.784 163.795,309.969 166.277 C 310.474 167.335,311.048 168.513,311.244 168.895 C 311.440 169.277,311.613 169.997,311.628 170.495 C 311.644 170.993,311.827 171.760,312.035 172.200 C 312.308 172.777,312.351 172.505,312.189 171.221 C 311.370 164.717,304.050 157.417,297.530 156.603 C 296.269 156.445,296.017 156.489,296.600 156.765 M56.192 200.600 C 56.192 222.160,56.241 230.921,56.300 220.070 C 56.359 209.218,56.359 191.578,56.300 180.870 C 56.241 170.161,56.192 179.040,56.192 200.600 M343.796 244.400 C 343.796 290.050,343.843 308.725,343.900 285.900 C 343.957 263.075,343.957 225.725,343.900 202.900 C 343.843 180.075,343.796 198.750,343.796 244.400 M167.600 169.067 C 165.740 169.833,164.193 171.715,159.146 179.353 C 156.076 183.999,153.258 187.933,152.882 188.097 C 152.310 188.346,152.329 188.378,153.000 188.297 C 153.550 188.230,155.496 185.668,159.228 180.097 C 166.533 169.192,166.999 168.775,171.110 169.432 C 173.439 169.804,174.121 170.577,180.290 179.825 L 185.909 188.251 188.255 188.758 C 189.545 189.037,191.320 189.420,192.200 189.609 C 193.080 189.798,194.520 190.069,195.400 190.211 C 196.280 190.354,197.810 190.642,198.800 190.853 C 199.790 191.064,201.410 191.390,202.400 191.578 C 216.045 194.167,217.646 194.715,218.881 197.220 C 220.944 201.403,219.955 202.857,209.987 210.285 C 201.574 216.555,200.869 217.300,202.267 218.451 C 202.634 218.753,203.968 220.309,205.231 221.908 C 207.550 224.845,208.140 224.970,207.544 222.400 C 206.203 216.620,208.732 212.559,213.457 212.907 C 215.370 213.048,216.348 213.618,227.457 221.063 C 234.026 225.465,239.791 229.276,240.269 229.531 C 240.977 229.909,242.835 229.649,250.269 228.132 C 264.257 225.278,265.366 225.400,267.367 230.012 C 267.716 230.817,267.975 231.098,267.984 230.680 C 268.005 229.737,267.054 227.955,266.126 227.200 C 263.968 225.444,261.946 225.258,256.800 226.346 C 255.129 226.699,252.872 227.149,248.400 228.022 C 247.410 228.216,245.381 228.641,243.891 228.968 L 241.182 229.562 228.222 220.981 C 215.605 212.628,215.207 212.400,213.225 212.400 C 208.907 212.400,206.800 214.903,206.800 220.034 L 206.800 223.279 205.008 220.895 C 204.022 219.584,202.942 218.284,202.608 218.006 C 201.607 217.176,201.709 217.076,209.700 211.069 C 218.912 204.144,219.512 203.557,219.844 201.132 C 220.308 197.745,217.564 193.600,214.856 193.600 C 214.307 193.600,213.304 193.431,212.628 193.224 C 211.953 193.017,210.320 192.640,209.000 192.386 C 206.425 191.889,203.573 191.322,201.000 190.793 C 200.120 190.613,198.410 190.277,197.200 190.047 C 195.990 189.817,193.020 189.239,190.600 188.763 L 186.200 187.897 180.286 179.149 C 173.494 169.101,171.455 167.480,167.600 169.067 M312.596 250.000 C 312.596 292.350,312.643 309.675,312.700 288.500 C 312.757 267.325,312.757 232.675,312.700 211.500 C 312.643 190.325,312.596 207.650,312.596 250.000 M87.391 205.600 C 87.391 223.310,87.440 230.555,87.500 221.700 C 87.560 212.845,87.560 198.355,87.500 189.500 C 87.440 180.645,87.391 187.890,87.391 205.600 M165.651 192.324 C 162.451 197.109,161.375 198.416,160.163 198.991 C 159.082 199.504,142.796 203.123,141.251 203.193 C 140.590 203.223,147.727 208.948,149.099 209.488 C 149.374 209.596,151.354 209.147,153.499 208.489 C 163.501 205.424,177.634 205.487,187.173 208.640 L 190.377 209.698 194.191 206.806 C 197.823 204.053,198.768 203.200,198.187 203.200 C 197.956 203.200,185.969 200.773,182.400 200.004 C 178.831 199.235,178.484 198.915,174.084 192.333 C 172.074 189.326,170.250 186.755,170.031 186.619 C 169.811 186.483,167.840 189.050,165.651 192.324 M145.000 189.646 C 141.920 190.284,138.680 190.979,137.800 191.191 L 136.200 191.576 138.000 191.394 C 138.990 191.294,140.700 191.023,141.800 190.790 C 144.157 190.292,147.056 189.732,149.704 189.263 C 151.638 188.920,152.766 188.364,151.367 188.443 C 150.945 188.467,148.080 189.008,145.000 189.646 M170.167 188.643 C 170.515 188.776,170.800 189.136,170.800 189.443 C 170.800 189.749,170.950 190.000,171.132 190.000 C 171.315 190.000,171.719 190.495,172.030 191.100 C 172.340 191.705,172.911 192.491,173.297 192.847 C 173.684 193.203,174.000 193.748,174.000 194.059 C 174.000 194.369,174.360 194.883,174.800 195.200 C 175.240 195.517,175.600 196.025,175.600 196.328 C 175.600 196.631,176.494 197.755,177.587 198.825 L 179.574 200.770 178.387 201.471 C 177.734 201.857,177.200 202.292,177.200 202.438 C 177.200 202.584,176.660 202.927,176.000 203.200 C 175.340 203.473,174.800 203.855,174.800 204.049 C 174.800 204.242,174.564 204.400,174.275 204.400 C 173.987 204.400,173.364 204.760,172.892 205.200 C 172.099 205.939,171.481 206.000,164.817 206.000 C 160.272 206.000,157.600 206.148,157.600 206.400 C 157.600 206.620,156.880 206.800,156.000 206.800 C 155.120 206.800,154.400 206.980,154.400 207.200 C 154.400 207.420,153.860 207.600,153.200 207.600 C 152.540 207.600,152.000 207.780,152.000 208.000 C 152.000 209.333,148.187 208.186,146.350 206.300 C 145.761 205.695,145.068 205.200,144.811 205.200 C 144.331 205.200,143.200 204.238,143.200 203.829 C 143.200 203.703,143.920 203.600,144.800 203.600 C 145.680 203.600,146.400 203.420,146.400 203.200 C 146.400 202.980,147.199 202.800,148.176 202.800 C 149.153 202.800,150.064 202.620,150.200 202.400 C 150.336 202.180,151.236 202.000,152.200 202.000 C 153.164 202.000,154.064 201.820,154.200 201.600 C 154.336 201.380,155.247 201.200,156.224 201.200 C 157.201 201.200,158.000 201.020,158.000 200.800 C 158.000 200.580,158.540 200.400,159.200 200.400 C 159.860 200.400,160.400 200.220,160.400 200.000 C 160.400 199.780,160.678 199.600,161.018 199.600 C 161.774 199.600,163.600 197.837,163.600 197.106 C 163.600 196.815,163.960 196.317,164.400 196.000 C 164.840 195.683,165.200 195.143,165.200 194.800 C 165.200 194.457,165.560 193.917,166.000 193.600 C 166.440 193.283,166.800 192.743,166.800 192.400 C 166.800 192.057,167.160 191.517,167.600 191.200 C 168.040 190.883,168.400 190.393,168.400 190.112 C 168.400 189.830,168.580 189.600,168.800 189.600 C 169.020 189.600,169.200 189.330,169.200 189.000 C 169.200 188.327,169.273 188.300,170.167 188.643 M133.400 192.009 C 132.520 192.179,130.720 192.534,129.400 192.799 C 128.080 193.063,126.460 193.367,125.800 193.473 C 120.785 194.284,118.209 198.922,120.514 202.991 C 121.180 204.166,123.526 206.152,129.492 210.591 C 138.226 217.089,138.292 217.175,136.173 219.222 C 133.493 221.812,128.000 231.027,128.000 232.934 C 128.000 233.274,127.840 233.652,127.644 233.773 C 127.281 233.997,127.195 234.379,126.340 239.600 C 125.521 244.608,125.707 250.108,126.848 254.600 C 127.805 258.367,128.018 258.965,129.873 263.100 C 130.632 264.792,140.049 278.704,142.130 281.209 C 142.409 281.544,143.248 282.714,143.995 283.809 C 144.742 284.904,145.499 285.860,145.677 285.933 C 145.855 286.007,146.000 286.230,146.000 286.430 C 146.000 286.630,146.625 287.612,147.390 288.614 C 148.154 289.615,148.951 290.740,149.160 291.114 C 149.369 291.488,149.638 291.696,149.757 291.576 C 149.877 291.457,148.804 289.748,147.374 287.779 C 145.944 285.811,143.881 282.940,142.789 281.400 C 141.697 279.860,139.948 277.401,138.902 275.936 C 128.044 260.727,126.588 257.110,126.614 245.400 C 126.637 234.942,129.385 227.671,136.350 219.643 L 138.568 217.086 137.184 215.910 C 136.423 215.264,134.990 214.177,134.000 213.494 C 133.010 212.811,132.110 212.145,132.000 212.012 C 131.890 211.880,129.730 210.225,127.200 208.334 C 121.358 203.967,120.921 203.535,120.400 201.598 C 119.247 197.318,121.683 194.620,127.600 193.623 C 129.250 193.345,131.122 192.956,131.760 192.759 C 132.398 192.561,133.388 192.397,133.960 192.394 C 134.532 192.391,135.270 192.213,135.600 192.000 C 136.332 191.527,135.886 191.529,133.400 192.009 M159.800 219.200 C 158.695 219.675,160.351 219.688,162.600 219.223 L 164.200 218.892 162.400 218.874 C 161.410 218.864,160.240 219.011,159.800 219.200 M177.000 219.223 C 179.249 219.688,180.905 219.675,179.800 219.200 C 179.360 219.011,178.190 218.864,177.200 218.874 L 175.400 218.892 177.000 219.223 M155.537 220.550 C 143.830 225.365,136.516 238.111,138.752 249.800 C 138.963 250.899,139.064 249.773,139.075 246.200 C 139.093 240.974,139.447 238.882,140.851 235.704 C 141.263 234.772,141.600 233.907,141.600 233.782 C 141.600 230.607,153.515 220.439,157.289 220.394 C 157.570 220.391,158.070 220.213,158.400 220.000 C 159.553 219.255,157.926 219.567,155.537 220.550 M181.200 219.962 C 181.530 220.196,182.042 220.391,182.338 220.394 C 183.063 220.402,188.572 223.033,189.256 223.698 C 189.555 223.988,190.400 224.648,191.133 225.164 C 194.011 227.188,196.898 231.341,199.502 237.200 C 199.746 237.750,199.958 237.937,199.973 237.615 C 200.148 233.823,192.187 224.467,186.400 221.666 C 183.114 220.076,179.859 219.009,181.200 219.962 M162.489 237.510 L 162.400 244.020 168.700 243.910 L 175.000 243.800 175.100 237.500 L 175.200 231.200 174.990 237.400 L 174.780 243.600 168.800 243.600 L 162.820 243.600 162.699 237.300 L 162.578 231.000 162.489 237.510 M221.720 234.900 C 221.918 236.275,222.287 238.459,222.540 239.754 L 223.000 242.107 226.631 243.977 C 235.071 248.323,245.814 259.236,250.280 268.000 C 251.782 270.948,251.840 271.004,253.604 271.253 C 254.592 271.392,256.747 271.695,258.393 271.927 C 260.038 272.159,261.460 272.273,261.552 272.182 C 261.643 272.090,259.450 268.591,256.677 264.406 C 250.566 255.183,250.645 255.503,252.398 247.000 C 253.067 243.754,253.630 240.297,253.509 240.176 C 253.441 240.108,250.263 240.680,246.447 241.448 C 237.914 243.165,238.706 243.367,229.234 237.048 C 221.003 231.556,221.247 231.626,221.720 234.900 M267.382 234.582 C 267.229 235.602,267.202 236.535,267.322 236.655 C 267.442 236.775,267.665 236.039,267.818 235.018 C 267.971 233.998,267.998 233.065,267.878 232.945 C 267.758 232.825,267.535 233.561,267.382 234.582 M266.631 238.600 C 266.481 239.480,266.203 240.920,266.012 241.800 C 265.821 242.680,265.458 244.480,265.204 245.800 C 264.951 247.120,264.576 248.851,264.372 249.646 C 263.608 252.617,263.718 252.843,271.809 264.863 C 281.909 279.871,281.894 279.841,280.633 282.859 C 280.004 284.365,279.192 285.187,277.400 286.134 C 276.740 286.483,276.437 286.775,276.726 286.784 C 279.385 286.865,282.180 282.318,281.347 279.266 C 281.127 278.460,277.199 272.169,272.618 265.287 L 264.290 252.774 265.770 245.363 C 266.584 241.287,267.172 237.738,267.077 237.476 C 266.981 237.214,266.780 237.720,266.631 238.600 M200.053 239.400 C 200.076 239.840,200.232 240.740,200.400 241.400 L 200.705 242.600 200.747 241.200 C 200.769 240.430,200.613 239.530,200.400 239.200 C 200.081 238.706,200.020 238.742,200.053 239.400 M200.934 245.600 C 200.934 247.250,201.005 247.925,201.091 247.100 C 201.178 246.275,201.178 244.925,201.091 244.100 C 201.005 243.275,200.934 243.950,200.934 245.600 M200.219 250.727 C 200.055 251.677,200.017 252.550,200.134 252.668 C 200.426 252.959,200.926 250.173,200.700 249.521 C 200.600 249.235,200.384 249.777,200.219 250.727 M162.488 256.090 L 162.400 262.380 156.100 262.501 L 149.800 262.622 156.113 262.711 C 163.576 262.816,162.859 263.570,162.700 255.782 L 162.577 249.800 162.488 256.090 M174.984 256.300 L 175.000 262.600 180.969 262.711 C 184.252 262.772,187.078 262.682,187.250 262.511 C 187.422 262.340,184.785 262.254,181.391 262.319 L 175.221 262.439 175.095 256.219 L 174.969 249.999 174.984 256.300 M139.411 252.800 C 139.807 254.932,142.537 260.291,144.709 263.200 C 145.776 264.630,150.846 271.689,155.974 278.886 C 165.464 292.205,166.217 293.078,168.502 293.409 L 169.800 293.597 168.400 293.166 C 166.511 292.584,165.620 291.685,162.291 287.000 C 160.727 284.800,158.717 281.999,157.824 280.776 C 155.658 277.810,155.696 277.862,148.692 268.000 C 145.332 263.270,142.163 258.500,141.648 257.400 C 141.134 256.300,140.552 255.087,140.356 254.705 C 140.160 254.323,139.997 253.693,139.994 253.305 C 139.991 252.917,139.800 252.330,139.570 252.000 C 139.261 251.557,139.219 251.766,139.411 252.800 M212.588 253.500 C 211.422 259.140,209.531 263.427,205.868 268.736 C 200.639 276.315,199.095 278.514,198.558 279.146 C 198.253 279.506,197.417 280.648,196.701 281.684 C 186.354 296.667,181.774 302.267,178.659 303.745 C 177.027 304.519,176.990 304.603,176.376 308.800 C 175.441 315.193,178.395 318.704,183.786 317.610 C 186.121 317.137,196.905 315.339,201.000 314.741 C 202.540 314.516,203.875 314.257,203.967 314.166 C 204.372 313.762,201.364 314.082,196.000 315.014 C 178.058 318.131,176.557 317.801,176.931 310.827 C 177.217 305.479,177.340 305.188,180.043 303.438 C 182.563 301.806,184.686 299.613,186.998 296.251 C 189.387 292.777,190.992 290.515,192.007 289.191 C 192.541 288.494,193.704 286.872,194.589 285.589 C 195.475 284.305,198.360 280.260,201.000 276.600 C 203.640 272.940,205.978 269.598,206.195 269.173 C 206.412 268.748,206.727 268.400,206.895 268.400 C 207.063 268.400,207.200 268.130,207.200 267.800 C 207.200 267.470,207.346 267.200,207.525 267.200 C 207.704 267.200,208.098 266.570,208.400 265.800 C 208.702 265.030,209.052 264.400,209.177 264.400 C 209.302 264.400,209.644 263.815,209.936 263.100 C 210.228 262.385,210.632 261.395,210.834 260.900 C 211.035 260.405,211.368 259.595,211.574 259.100 C 212.045 257.965,212.706 255.732,212.994 254.300 C 214.274 247.942,239.600 268.598,239.600 276.001 C 239.600 276.414,239.780 276.864,240.000 277.000 C 240.220 277.136,240.400 277.741,240.400 278.344 C 240.400 278.947,240.591 279.631,240.824 279.864 C 241.286 280.326,241.134 289.306,240.629 291.400 C 238.856 298.752,229.910 309.200,225.388 309.200 C 225.065 309.200,224.800 309.360,224.800 309.555 C 224.800 309.750,224.305 310.009,223.700 310.130 C 223.095 310.251,221.790 310.556,220.800 310.806 C 219.810 311.056,217.974 311.388,216.721 311.543 C 214.467 311.822,213.098 312.400,214.689 312.400 C 225.646 312.400,236.009 304.902,240.396 293.800 C 243.512 285.912,241.303 274.281,235.444 267.728 C 227.550 258.900,222.795 255.199,216.825 253.240 C 213.422 252.122,212.866 252.156,212.588 253.500 M198.971 255.212 C 198.252 257.250,195.438 261.740,190.911 268.073 C 186.218 274.638,180.197 283.103,179.440 284.200 C 178.984 284.860,178.394 285.670,178.128 286.000 C 177.862 286.330,176.785 287.770,175.735 289.200 C 173.724 291.939,173.330 292.294,171.400 293.104 L 170.200 293.607 171.400 293.377 C 173.496 292.974,174.139 292.255,180.928 282.731 C 184.587 277.599,187.900 272.971,188.290 272.448 C 188.681 271.924,189.720 270.462,190.600 269.199 C 191.480 267.936,193.431 265.159,194.935 263.029 C 197.666 259.161,200.175 254.326,199.892 253.476 C 199.810 253.229,199.395 254.010,198.971 255.212 M224.800 268.590 L 224.800 274.780 218.500 274.901 L 212.200 275.022 218.700 275.111 L 225.200 275.200 225.200 268.800 C 225.200 265.280,225.110 262.400,225.000 262.400 C 224.890 262.400,224.800 265.185,224.800 268.590 M254.063 286.266 L 254.126 288.600 254.363 286.600 C 254.632 284.334,254.413 284.403,259.600 284.931 C 261.228 285.097,261.815 285.067,261.171 284.851 C 260.606 284.662,258.761 284.378,257.071 284.220 L 254.000 283.932 254.063 286.266 M264.400 285.641 C 265.610 285.832,267.601 286.171,268.824 286.394 C 270.932 286.779,274.255 286.914,273.400 286.581 C 272.597 286.267,264.625 285.201,263.430 285.248 C 262.633 285.278,262.975 285.417,264.400 285.641 M218.580 287.707 C 218.469 287.998,218.428 290.927,218.489 294.218 L 218.600 300.200 225.000 300.200 L 231.400 300.200 231.400 293.800 L 231.400 287.400 225.091 287.290 C 220.157 287.204,218.739 287.295,218.580 287.707 M231.200 293.800 L 231.200 300.000 225.000 300.000 L 218.800 300.000 218.800 293.800 L 218.800 287.600 225.000 287.600 L 231.200 287.600 231.200 293.800 M253.660 290.436 C 253.159 299.089,245.474 311.661,237.352 317.116 C 230.589 321.657,227.336 322.711,212.400 325.200 C 211.080 325.420,208.965 325.773,207.700 325.985 C 206.435 326.197,204.140 326.569,202.600 326.812 C 201.060 327.055,198.900 327.414,197.800 327.609 C 196.700 327.804,194.630 328.159,193.200 328.399 C 191.770 328.639,189.700 328.999,188.600 329.199 C 173.963 331.863,163.951 324.571,163.924 311.229 C 163.920 309.039,163.798 308.089,163.587 308.600 C 163.051 309.897,163.155 313.387,163.803 315.880 C 165.522 322.490,169.436 326.819,176.200 329.591 C 179.457 330.925,184.792 330.545,198.600 327.994 C 199.700 327.791,201.860 327.430,203.400 327.192 C 204.940 326.955,206.968 326.590,207.906 326.380 C 208.844 326.171,210.083 326.000,210.659 326.000 C 211.236 326.000,212.358 325.832,213.154 325.626 C 213.949 325.421,215.950 325.047,217.600 324.796 C 224.699 323.714,227.158 322.996,232.430 320.463 C 239.896 316.877,246.552 310.303,250.209 302.904 C 252.390 298.489,254.179 292.499,253.893 290.568 C 253.730 289.466,253.716 289.459,253.660 290.436 M150.215 292.438 C 153.610 298.073,157.690 302.539,160.800 304.026 C 161.790 304.500,162.870 305.022,163.200 305.186 C 163.530 305.351,163.914 306.006,164.053 306.643 L 164.305 307.800 164.353 306.504 C 164.397 305.283,164.249 305.140,161.798 304.028 C 158.689 302.619,155.817 299.879,152.884 295.528 C 151.139 292.939,149.081 290.557,150.215 292.438 M193.689 300.100 L 193.778 306.600 193.899 300.310 L 194.020 294.020 200.310 293.899 L 206.600 293.778 200.100 293.689 L 193.600 293.600 193.689 300.100 M209.600 312.800 C 208.867 313.274,210.737 313.274,212.600 312.800 C 213.694 312.522,213.642 312.491,212.000 312.453 C 211.010 312.431,209.930 312.587,209.600 312.800 M204.800 313.600 C 204.067 314.074,205.937 314.074,207.800 313.600 C 208.894 313.322,208.842 313.291,207.200 313.253 C 206.210 313.231,205.130 313.387,204.800 313.600 M87.811 328.779 C 88.630 335.283,95.550 342.153,102.720 343.578 C 105.758 344.183,294.929 344.167,297.523 343.562 C 304.791 341.868,311.377 335.229,312.189 328.779 C 312.351 327.495,312.308 327.223,312.035 327.800 C 311.827 328.240,311.644 329.007,311.628 329.505 C 311.613 330.003,311.440 330.723,311.244 331.105 C 311.048 331.487,310.475 332.664,309.971 333.719 C 307.869 338.121,302.784 341.859,297.123 343.167 C 294.474 343.778,105.526 343.778,102.877 343.167 C 97.370 341.895,92.071 337.997,90.026 333.713 C 89.523 332.661,88.952 331.487,88.756 331.105 C 88.560 330.723,88.387 330.003,88.372 329.505 C 88.356 329.007,88.173 328.240,87.965 327.800 C 87.692 327.223,87.649 327.495,87.811 328.779 M56.546 331.000 C 58.357 353.635,76.199 374.068,99.132 379.770 C 101.863 380.449,104.311 380.632,102.400 380.013 C 101.850 379.836,100.320 379.461,99.000 379.181 C 97.680 378.900,96.429 378.520,96.220 378.336 C 96.011 378.151,95.437 378.000,94.944 378.000 C 94.451 378.000,93.936 377.820,93.800 377.600 C 93.664 377.380,93.232 377.200,92.841 377.200 C 92.449 377.200,90.344 376.277,88.164 375.148 C 85.984 374.019,83.796 372.894,83.303 372.648 C 82.810 372.402,82.405 372.065,82.403 371.900 C 82.401 371.735,82.145 371.600,81.833 371.600 C 81.522 371.600,81.207 371.465,81.133 371.300 C 81.060 371.135,79.920 370.201,78.600 369.224 C 70.647 363.340,62.600 352.423,60.010 344.000 C 59.705 343.010,59.331 342.020,59.178 341.800 C 59.025 341.580,58.796 340.860,58.668 340.200 C 58.540 339.540,58.236 338.100,57.993 337.000 C 57.749 335.900,57.401 333.505,57.219 331.678 C 56.793 327.385,56.210 326.799,56.546 331.000 M343.168 328.500 C 343.151 328.555,342.983 330.040,342.795 331.800 C 342.608 333.560,342.272 335.810,342.049 336.800 C 341.826 337.790,341.530 339.140,341.391 339.800 C 341.143 340.984,340.643 342.340,339.953 343.695 C 339.759 344.077,339.600 344.617,339.600 344.896 C 339.600 349.308,327.830 364.934,321.000 369.590 C 319.900 370.340,318.940 371.099,318.867 371.277 C 318.793 371.455,318.551 371.600,318.328 371.600 C 318.106 371.600,317.398 371.974,316.756 372.432 C 315.120 373.596,309.602 376.400,308.945 376.400 C 308.645 376.400,308.400 376.580,308.400 376.800 C 308.400 377.020,307.961 377.200,307.424 377.200 C 306.887 377.200,306.336 377.380,306.200 377.600 C 306.064 377.820,305.549 378.000,305.056 378.000 C 304.563 378.000,303.989 378.151,303.780 378.336 C 303.571 378.520,302.320 378.896,301.000 379.171 C 296.649 380.076,296.531 380.112,297.309 380.295 C 298.869 380.663,307.122 378.088,311.970 375.721 C 329.155 367.332,341.816 349.536,343.433 331.500 C 343.646 329.121,343.499 327.459,343.168 328.500 M302.473 354.829 C 301.303 355.233,298.873 355.727,297.073 355.928 L 293.800 356.293 296.440 356.346 C 297.892 356.376,299.602 356.241,300.240 356.047 C 300.878 355.852,302.210 355.461,303.200 355.177 C 305.036 354.650,306.248 353.960,305.180 354.048 C 304.861 354.074,303.643 354.426,302.473 354.829 M105.000 380.823 C 105.880 381.005,107.860 381.139,109.400 381.121 L 112.200 381.087 110.000 380.783 C 106.735 380.332,102.778 380.363,105.000 380.823 M289.800 380.800 C 287.834 381.070,287.848 381.075,290.600 381.114 C 292.140 381.136,294.120 381.005,295.000 380.823 C 297.104 380.388,292.940 380.369,289.800 380.800 " stroke="none" fill="#707e4d" fill-rule="evenodd"></path></g></svg>