<svg id="svg" version="1.1" xmlns="http://www.w3.org/2000/svg" xmlns:xlink="http://www.w3.org/1999/xlink" width="400" height="400" viewBox="0, 0, 400,400"><g id="svgg"><path id="path0" d="M86.800 0.538 C 86.800 0.834,86.440 1.402,86.000 1.800 C 84.743 2.937,84.743 53.494,86.000 54.400 C 86.440 54.717,86.800 55.261,86.800 55.608 C 86.800 57.161,87.234 57.200,104.480 57.200 L 121.200 57.200 121.200 63.400 L 121.200 69.600 111.403 69.600 C 102.040 69.600,101.585 69.635,101.107 70.400 C 100.682 71.081,100.174 71.200,97.704 71.200 C 95.067 71.200,94.800 71.273,94.800 72.000 C 94.800 72.693,94.533 72.800,92.803 72.800 C 91.240 72.800,90.698 72.974,90.307 73.600 C 90.004 74.085,89.374 74.400,88.707 74.400 C 88.040 74.400,87.410 74.715,87.107 75.200 C 86.832 75.640,86.319 76.000,85.966 76.000 C 85.613 76.000,84.998 76.360,84.600 76.800 C 84.202 77.240,83.527 77.600,83.101 77.600 C 82.662 77.600,82.234 77.947,82.116 78.400 C 82.000 78.843,81.570 79.200,81.153 79.200 C 80.739 79.200,80.400 79.456,80.400 79.768 C 80.400 80.081,79.859 80.455,79.197 80.601 C 78.535 80.746,77.809 81.210,77.583 81.633 C 77.357 82.055,76.908 82.400,76.586 82.400 C 76.264 82.400,76.000 82.670,76.000 83.000 C 76.000 83.330,75.724 83.600,75.387 83.600 C 75.051 83.600,74.657 83.915,74.514 84.300 C 74.370 84.685,73.926 85.235,73.526 85.523 C 73.127 85.810,72.800 86.215,72.800 86.423 C 72.800 86.630,72.440 87.160,72.000 87.600 C 71.560 88.040,71.200 88.760,71.200 89.200 C 71.200 89.733,70.933 90.000,70.400 90.000 C 69.883 90.000,69.600 90.267,69.600 90.753 C 69.600 91.170,69.243 91.600,68.800 91.716 C 68.194 91.875,68.000 92.262,68.000 93.316 C 68.000 94.370,67.806 94.757,67.200 94.916 C 66.636 95.063,66.400 95.462,66.400 96.266 C 66.400 96.974,66.096 97.597,65.600 97.907 C 65.129 98.201,64.800 98.840,64.800 99.459 C 64.800 100.038,64.512 100.723,64.159 100.980 C 63.789 101.251,63.428 102.283,63.303 103.424 C 63.184 104.511,62.842 105.544,62.543 105.720 C 62.144 105.955,62.000 107.080,62.000 109.958 C 62.000 113.368,61.896 113.970,61.200 114.600 C 59.935 115.745,59.935 359.785,61.200 360.116 C 61.927 360.306,62.000 360.662,62.000 363.991 C 62.000 366.716,62.154 367.811,62.600 368.257 C 62.956 368.614,63.200 369.591,63.200 370.666 C 63.200 372.138,63.349 372.514,64.000 372.684 C 64.570 372.833,64.800 373.230,64.800 374.063 C 64.800 374.707,65.160 375.620,65.600 376.092 C 66.040 376.564,66.400 377.367,66.400 377.875 C 66.400 378.533,66.631 378.800,67.200 378.800 C 67.852 378.800,68.000 379.067,68.000 380.237 C 68.000 381.338,68.187 381.724,68.800 381.884 C 69.243 382.000,69.600 382.430,69.600 382.847 C 69.600 383.333,69.883 383.600,70.400 383.600 C 70.897 383.600,71.200 383.867,71.200 384.304 C 71.200 384.691,71.560 385.232,72.000 385.507 C 72.440 385.782,72.800 386.237,72.800 386.517 C 72.800 386.798,73.720 387.832,74.845 388.814 C 75.970 389.796,77.128 390.825,77.417 391.100 C 77.706 391.375,78.226 391.600,78.571 391.600 C 78.917 391.600,79.200 391.870,79.200 392.200 C 79.200 392.530,79.458 392.800,79.773 392.800 C 80.088 392.800,80.460 393.160,80.600 393.600 C 80.789 394.195,81.205 394.400,82.227 394.400 C 83.333 394.400,83.600 394.555,83.600 395.200 C 83.600 395.867,83.867 396.000,85.200 396.000 C 86.533 396.000,86.800 396.133,86.800 396.800 C 86.800 397.467,87.067 397.600,88.400 397.600 C 89.733 397.600,90.000 397.733,90.000 398.400 C 90.000 399.111,90.267 399.200,92.400 399.200 C 93.733 399.200,94.800 399.378,94.800 399.600 C 94.800 399.866,130.200 400.000,200.200 400.000 C 270.200 400.000,305.600 399.866,305.600 399.600 C 305.600 399.380,306.590 399.200,307.800 399.200 C 309.733 399.200,310.000 399.103,310.000 398.400 C 310.000 397.733,310.267 397.600,311.600 397.600 C 312.933 397.600,313.200 397.467,313.200 396.800 C 313.200 396.133,313.467 396.000,314.800 396.000 C 316.133 396.000,316.400 395.867,316.400 395.200 C 316.400 394.548,316.667 394.400,317.837 394.400 C 318.938 394.400,319.324 394.213,319.484 393.600 C 319.600 393.157,320.030 392.800,320.447 392.800 C 320.861 392.800,321.200 392.551,321.200 392.247 C 321.200 391.942,321.560 391.599,322.000 391.484 C 322.440 391.369,322.800 390.988,322.800 390.637 C 322.800 390.287,322.983 390.000,323.206 390.000 C 323.883 390.000,327.200 386.559,327.200 385.856 C 327.200 385.467,327.525 385.200,328.000 385.200 C 328.533 385.200,328.800 384.933,328.800 384.400 C 328.800 383.867,329.067 383.600,329.600 383.600 C 330.117 383.600,330.400 383.333,330.400 382.847 C 330.400 382.430,330.757 382.000,331.200 381.884 C 331.813 381.724,332.000 381.338,332.000 380.237 C 332.000 379.067,332.148 378.800,332.800 378.800 C 333.467 378.800,333.600 378.533,333.600 377.200 C 333.600 375.867,333.733 375.600,334.400 375.600 C 335.045 375.600,335.200 375.333,335.200 374.227 C 335.200 373.205,335.405 372.789,336.000 372.600 C 336.658 372.391,336.800 371.995,336.800 370.373 C 336.800 368.933,337.016 368.184,337.600 367.600 C 338.295 366.905,338.400 366.267,338.400 362.731 C 338.400 359.418,338.530 358.519,339.100 357.890 C 340.189 356.686,340.189 111.362,339.100 110.752 C 338.520 110.428,338.400 109.785,338.400 107.013 C 338.400 103.323,338.191 102.400,337.357 102.400 C 336.956 102.400,336.800 101.845,336.800 100.414 C 336.800 98.838,336.635 98.340,336.000 98.000 C 335.436 97.698,335.200 97.162,335.200 96.186 C 335.200 95.067,335.046 94.800,334.400 94.800 C 333.821 94.800,333.600 94.533,333.600 93.833 C 333.600 92.452,333.202 91.600,332.557 91.600 C 332.251 91.600,332.000 91.240,332.000 90.800 C 332.000 90.267,331.733 90.000,331.200 90.000 C 330.614 90.000,330.400 89.733,330.400 89.003 C 330.400 88.440,330.052 87.790,329.600 87.507 C 329.160 87.232,328.800 86.674,328.800 86.266 C 328.800 85.859,328.440 85.431,328.000 85.316 C 327.560 85.201,327.200 84.841,327.200 84.516 C 327.200 84.191,326.840 83.831,326.400 83.716 C 325.960 83.601,325.600 83.319,325.600 83.089 C 325.600 82.617,323.232 80.400,322.728 80.400 C 322.548 80.400,322.400 80.130,322.400 79.800 C 322.400 79.381,321.978 79.200,321.000 79.200 C 319.867 79.200,319.600 79.048,319.600 78.400 C 319.600 77.867,319.333 77.600,318.800 77.600 C 318.267 77.600,318.000 77.333,318.000 76.800 C 318.000 76.133,317.733 76.000,316.400 76.000 C 315.067 76.000,314.800 75.867,314.800 75.200 C 314.800 74.667,314.533 74.400,314.000 74.400 C 313.560 74.400,312.840 74.040,312.400 73.600 C 311.867 73.067,311.067 72.800,310.000 72.800 C 308.667 72.800,308.400 72.667,308.400 72.000 C 308.400 71.299,308.133 71.200,306.247 71.200 C 304.430 71.200,304.061 71.075,303.884 70.400 C 303.693 69.671,303.338 69.600,299.884 69.600 C 296.430 69.600,296.075 69.529,295.884 68.800 C 295.685 68.037,295.338 68.000,288.400 68.000 C 281.462 68.000,281.115 68.037,280.916 68.800 C 280.781 69.318,280.370 69.600,279.753 69.600 L 278.800 69.600 278.800 63.400 L 278.800 57.200 296.000 57.200 C 312.933 57.200,313.200 57.188,313.200 56.400 C 313.200 55.867,313.467 55.600,314.000 55.600 C 314.792 55.600,314.800 55.333,314.800 28.200 C 314.800 1.067,314.792 0.800,314.000 0.800 C 313.560 0.800,313.200 0.620,313.200 0.400 C 313.200 0.134,275.200 0.000,200.000 0.000 C 105.442 0.000,86.800 0.089,86.800 0.538 M302.400 27.400 L 302.400 43.200 200.800 43.200 L 99.200 43.200 99.200 27.400 L 99.200 11.600 200.800 11.600 L 302.400 11.600 302.400 27.400 M266.400 68.000 C 266.400 78.533,266.420 78.800,267.200 78.800 C 267.733 78.800,268.000 79.067,268.000 79.600 C 268.000 80.133,268.267 80.400,268.800 80.400 C 269.333 80.400,269.600 80.667,269.600 81.200 C 269.600 81.985,269.867 82.000,283.800 82.000 C 295.671 82.000,298.000 82.091,298.000 82.557 C 298.000 83.267,298.875 83.600,300.736 83.600 C 301.774 83.600,302.355 83.836,302.707 84.400 C 302.990 84.852,303.640 85.200,304.203 85.200 C 304.752 85.200,305.560 85.560,306.000 86.000 C 306.440 86.440,307.250 86.800,307.800 86.800 C 308.388 86.800,308.800 87.030,308.800 87.357 C 308.800 88.002,309.652 88.400,311.033 88.400 C 311.733 88.400,312.000 88.621,312.000 89.200 C 312.000 89.644,312.267 90.000,312.600 90.000 C 312.930 90.000,313.200 90.276,313.200 90.613 C 313.200 90.949,313.515 91.341,313.900 91.482 C 314.285 91.624,314.744 91.978,314.920 92.270 C 315.096 92.561,315.480 92.800,315.773 92.800 C 316.067 92.800,316.401 93.160,316.516 93.600 C 316.631 94.040,317.012 94.400,317.363 94.400 C 317.733 94.400,318.000 94.735,318.000 95.200 C 318.000 95.733,318.267 96.000,318.800 96.000 C 319.422 96.000,319.600 96.267,319.600 97.197 C 319.600 97.960,319.890 98.574,320.400 98.893 C 320.840 99.168,321.200 99.709,321.200 100.096 C 321.200 100.533,321.503 100.800,322.000 100.800 C 322.667 100.800,322.800 101.067,322.800 102.400 C 322.800 103.733,322.933 104.000,323.600 104.000 C 324.303 104.000,324.400 104.267,324.400 106.200 C 324.400 108.133,324.497 108.400,325.200 108.400 C 325.951 108.400,326.000 108.667,326.000 112.786 C 326.000 116.762,326.075 117.212,326.800 117.600 C 327.852 118.163,328.094 354.400,327.043 354.400 C 326.194 354.400,326.000 355.329,326.000 359.386 C 326.000 362.770,325.928 363.126,325.200 363.316 C 324.564 363.482,324.400 363.862,324.400 365.163 C 324.400 366.296,324.228 366.800,323.843 366.800 C 323.249 366.800,322.800 367.634,322.800 368.736 C 322.800 369.106,322.440 369.632,322.000 369.907 C 321.490 370.226,321.200 370.840,321.200 371.603 C 321.200 372.533,321.022 372.800,320.400 372.800 C 319.883 372.800,319.600 373.067,319.600 373.553 C 319.600 373.970,319.243 374.400,318.800 374.516 C 318.360 374.631,318.000 375.012,318.000 375.363 C 318.000 375.713,317.730 376.000,317.400 376.000 C 317.067 376.000,316.800 376.356,316.800 376.800 C 316.800 377.333,316.533 377.600,316.000 377.600 C 315.550 377.600,315.200 377.867,315.200 378.210 C 315.200 378.545,314.750 378.991,314.200 379.200 C 313.650 379.409,313.200 379.765,313.200 379.990 C 313.200 380.216,312.930 380.400,312.600 380.400 C 312.267 380.400,312.000 380.756,312.000 381.200 C 312.000 381.779,311.733 382.000,311.033 382.000 C 309.652 382.000,308.800 382.398,308.800 383.043 C 308.800 383.416,308.325 383.600,307.363 383.600 C 306.262 383.600,305.876 383.787,305.716 384.400 C 305.539 385.077,305.170 385.200,303.316 385.200 C 301.462 385.200,301.093 385.323,300.916 386.000 C 300.585 387.265,101.015 387.265,100.684 386.000 C 100.507 385.323,100.138 385.200,98.284 385.200 C 96.430 385.200,96.061 385.077,95.884 384.400 C 95.724 383.787,95.338 383.600,94.237 383.600 C 93.246 383.600,92.800 383.419,92.800 383.018 C 92.800 382.670,92.238 382.331,91.400 382.174 C 90.584 382.021,90.000 381.675,90.000 381.346 C 90.000 381.035,89.550 380.609,89.000 380.400 C 88.450 380.191,88.000 379.835,88.000 379.610 C 88.000 379.384,87.742 379.200,87.427 379.200 C 87.112 379.200,86.740 378.840,86.600 378.400 C 86.460 377.960,86.154 377.600,85.919 377.600 C 85.404 377.600,83.817 375.941,83.472 375.044 C 83.336 374.690,82.949 374.400,82.613 374.400 C 82.267 374.400,82.000 374.052,82.000 373.600 C 82.000 373.067,81.733 372.800,81.200 372.800 C 80.678 372.800,80.400 372.533,80.400 372.033 C 80.400 370.841,79.969 370.000,79.357 370.000 C 79.045 370.000,78.800 369.602,78.800 369.096 C 78.800 368.599,78.440 367.968,78.000 367.693 C 77.396 367.316,77.200 366.760,77.200 365.424 C 77.200 364.005,77.041 363.604,76.400 363.400 C 75.700 363.178,75.600 362.795,75.600 360.344 C 75.600 358.387,75.419 357.362,75.000 356.943 C 74.087 356.030,74.087 116.606,75.000 116.255 C 75.475 116.073,75.600 115.232,75.600 112.213 C 75.600 108.667,75.656 108.400,76.400 108.400 C 77.058 108.400,77.200 108.133,77.200 106.896 C 77.200 105.826,77.430 105.249,78.000 104.893 C 78.452 104.610,78.800 103.960,78.800 103.397 C 78.800 102.848,79.160 102.040,79.600 101.600 C 80.040 101.160,80.400 100.440,80.400 100.000 C 80.400 99.467,80.667 99.200,81.200 99.200 C 81.733 99.200,82.000 98.933,82.000 98.400 C 82.000 97.960,82.360 97.240,82.800 96.800 C 83.240 96.360,83.600 95.640,83.600 95.200 C 83.600 94.667,83.867 94.400,84.400 94.400 C 84.933 94.400,85.200 94.133,85.200 93.600 C 85.200 93.067,85.467 92.800,86.000 92.800 C 86.444 92.800,86.800 92.533,86.800 92.200 C 86.800 91.870,87.087 91.600,87.437 91.600 C 87.788 91.600,88.165 91.257,88.274 90.838 C 88.401 90.352,88.968 89.982,89.837 89.819 C 90.646 89.668,91.200 89.327,91.200 88.982 C 91.200 88.662,91.487 88.400,91.837 88.400 C 92.188 88.400,92.569 88.040,92.684 87.600 C 92.848 86.973,93.230 86.800,94.447 86.800 C 95.733 86.800,96.000 86.663,96.000 86.000 C 96.000 85.333,96.267 85.200,97.600 85.200 C 98.933 85.200,99.200 85.067,99.200 84.400 C 99.200 83.689,99.467 83.600,101.600 83.600 C 103.467 83.600,104.178 83.422,104.800 82.800 C 105.568 82.032,106.133 82.000,118.800 82.000 C 131.733 82.000,132.000 81.984,132.000 81.200 C 132.000 80.667,132.267 80.400,132.800 80.400 C 133.333 80.400,133.600 80.133,133.600 79.600 C 133.600 79.067,133.867 78.800,134.400 78.800 C 135.180 78.800,135.200 78.533,135.200 68.000 L 135.200 57.200 200.800 57.200 L 266.400 57.200 266.400 68.000 M113.400 103.200 C 113.188 103.867,112.795 104.000,111.035 104.000 C 109.432 104.000,108.750 104.193,108.200 104.800 C 107.802 105.240,107.082 105.600,106.600 105.600 C 106.118 105.600,105.398 105.960,105.000 106.400 C 104.602 106.840,103.854 107.200,103.338 107.200 C 102.667 107.200,102.400 107.427,102.400 108.000 C 102.400 108.533,102.133 108.800,101.600 108.800 C 101.067 108.800,100.800 109.067,100.800 109.600 C 100.800 110.133,100.533 110.400,100.000 110.400 C 99.467 110.400,99.200 110.667,99.200 111.200 C 99.200 111.733,98.933 112.000,98.400 112.000 C 97.960 112.000,97.600 112.249,97.600 112.553 C 97.600 112.858,97.240 113.201,96.800 113.316 C 96.339 113.437,96.000 113.862,96.000 114.320 C 96.000 114.757,95.730 115.218,95.400 115.345 C 95.057 115.476,94.800 116.073,94.800 116.741 C 94.800 117.570,94.569 117.967,94.000 118.116 C 93.320 118.294,93.200 118.662,93.200 120.563 C 93.200 122.533,93.105 122.800,92.400 122.800 C 91.606 122.800,91.600 123.067,91.600 161.000 C 91.600 198.933,91.606 199.200,92.400 199.200 C 92.933 199.200,93.200 199.467,93.200 200.000 C 93.200 200.642,93.467 200.800,94.553 200.800 C 95.570 200.800,95.959 200.999,96.116 201.600 C 96.449 202.875,100.400 202.651,100.400 201.357 C 100.400 200.993,100.858 200.800,101.720 200.800 C 103.511 200.800,104.000 200.183,104.000 197.920 C 104.000 196.480,104.150 196.000,104.600 196.000 C 105.128 196.000,105.200 192.363,105.200 165.663 C 105.200 130.721,105.356 125.757,106.460 125.468 C 106.979 125.333,107.200 124.905,107.200 124.037 C 107.200 123.204,107.396 122.800,107.800 122.800 C 108.133 122.800,108.400 122.444,108.400 122.000 C 108.400 121.467,108.667 121.200,109.200 121.200 C 109.733 121.200,110.000 120.933,110.000 120.400 C 110.000 119.821,110.267 119.600,110.967 119.600 C 112.348 119.600,113.200 119.202,113.200 118.557 C 113.200 118.184,113.675 118.000,114.637 118.000 C 115.738 118.000,116.124 117.813,116.284 117.200 C 116.474 116.473,116.830 116.400,120.200 116.400 C 123.570 116.400,123.926 116.327,124.116 115.600 C 124.231 115.160,124.612 114.800,124.963 114.800 C 125.509 114.800,125.600 114.142,125.600 110.200 C 125.600 107.622,125.436 105.600,125.227 105.600 C 125.022 105.600,124.740 105.240,124.600 104.800 C 124.460 104.360,124.019 104.000,123.620 104.000 C 123.220 104.000,122.799 103.640,122.684 103.200 C 122.491 102.461,122.138 102.400,118.064 102.400 C 114.005 102.400,113.634 102.464,113.400 103.200 " stroke="none" fill="#040404" fill-rule="evenodd"></path><path id="path1" d="" stroke="none" fill="#080404" fill-rule="evenodd"></path><path id="path2" d="" stroke="none" fill="#080404" fill-rule="evenodd"></path><path id="path3" d="" stroke="none" fill="#080404" fill-rule="evenodd"></path><path id="path4" d="" stroke="none" fill="#080404" fill-rule="evenodd"></path></g></svg>