<svg id="svg" version="1.1" xmlns="http://www.w3.org/2000/svg" xmlns:xlink="http://www.w3.org/1999/xlink" width="400" height="400" viewBox="0, 0, 400,400"><g id="svgg"><path id="path0" d="M348.207 20.679 C 348.807 22.114,349.200 22.762,349.200 22.316 C 349.200 21.884,347.985 19.200,347.789 19.200 C 347.679 19.200,347.867 19.866,348.207 20.679 M51.600 20.084 C 51.600 20.204,51.328 20.954,50.995 21.751 C 50.662 22.548,50.479 23.200,50.589 23.200 C 50.906 23.200,52.033 20.300,51.805 20.072 C 51.692 19.959,51.600 19.965,51.600 20.084 M352.000 29.284 C 352.000 29.716,353.215 32.400,353.411 32.400 C 353.521 32.400,353.333 31.734,352.993 30.921 C 352.393 29.486,352.000 28.838,352.000 29.284 M354.434 35.500 C 354.415 35.995,354.580 36.400,354.800 36.400 C 355.020 36.400,355.200 36.850,355.200 37.400 C 355.200 37.950,355.380 38.400,355.600 38.400 C 355.820 38.400,356.000 38.760,356.000 39.200 C 356.000 39.640,356.180 40.000,356.400 40.000 C 356.977 40.000,356.891 39.674,355.615 37.000 C 354.822 35.340,354.458 34.878,354.434 35.500 M357.630 42.676 C 357.613 43.158,357.780 43.664,358.000 43.800 C 358.220 43.936,358.400 44.397,358.400 44.824 C 358.400 45.251,358.580 45.600,358.800 45.600 C 359.332 45.600,359.276 45.293,358.400 43.400 C 357.836 42.182,357.652 42.009,357.630 42.676 M360.016 48.116 C 360.002 48.743,360.712 50.502,363.605 57.000 C 363.996 57.880,364.625 59.320,365.002 60.200 C 365.379 61.080,365.938 62.323,366.244 62.961 C 366.550 63.600,366.800 64.365,366.800 64.661 C 366.800 64.958,366.980 65.200,367.200 65.200 C 367.420 65.200,367.600 65.472,367.600 65.805 C 367.600 66.138,367.808 66.813,368.062 67.305 C 369.033 69.182,369.200 69.607,369.200 70.195 C 369.200 70.528,369.380 70.800,369.600 70.800 C 369.820 70.800,370.000 71.149,370.000 71.576 C 370.000 72.003,370.180 72.464,370.400 72.600 C 370.620 72.736,370.800 73.197,370.800 73.624 C 370.800 74.051,370.980 74.400,371.200 74.400 C 371.420 74.400,371.600 74.760,371.600 75.200 C 371.600 75.640,371.780 76.000,372.000 76.000 C 372.220 76.000,372.400 76.349,372.400 76.776 C 372.400 77.203,372.580 77.664,372.800 77.800 C 373.020 77.936,373.200 78.487,373.200 79.024 C 373.200 79.561,373.380 80.000,373.600 80.000 C 373.820 80.000,374.000 80.360,374.000 80.800 C 374.000 81.240,374.180 81.600,374.400 81.600 C 374.962 81.600,372.222 74.785,367.360 64.088 C 366.832 62.927,366.400 61.897,366.400 61.800 C 366.400 61.703,365.971 60.673,365.446 59.512 C 363.697 55.642,362.547 53.014,361.984 51.600 C 360.942 48.985,360.032 47.374,360.016 48.116 M35.267 57.980 C 35.033 58.651,34.927 59.200,35.031 59.200 C 35.301 59.200,36.056 57.122,35.857 56.924 C 35.767 56.833,35.501 57.308,35.267 57.980 M34.400 59.684 C 34.400 59.804,34.128 60.554,33.795 61.351 C 33.462 62.148,33.279 62.800,33.389 62.800 C 33.706 62.800,34.833 59.900,34.605 59.672 C 34.492 59.559,34.400 59.565,34.400 59.684 M32.000 65.284 C 32.000 65.404,31.728 66.154,31.395 66.951 C 31.062 67.748,30.879 68.400,30.989 68.400 C 31.306 68.400,32.433 65.500,32.205 65.272 C 32.092 65.159,32.000 65.165,32.000 65.284 M374.800 82.382 C 374.800 82.618,374.965 83.123,375.166 83.505 C 375.368 83.887,375.833 84.890,376.201 85.732 C 376.568 86.575,376.966 87.167,377.085 87.048 C 377.205 86.928,376.919 86.016,376.451 85.020 C 375.983 84.024,375.600 83.037,375.600 82.828 C 375.600 82.619,375.420 82.336,375.200 82.200 C 374.980 82.064,374.800 82.146,374.800 82.382 M377.363 88.596 C 377.501 89.143,378.130 90.718,378.761 92.096 C 380.341 95.540,381.076 97.222,381.564 98.506 L 381.980 99.599 215.090 99.700 L 48.200 99.801 215.500 99.900 C 307.515 99.955,382.800 99.908,382.800 99.796 C 382.800 99.683,382.419 98.738,381.953 97.696 C 381.488 96.653,380.858 95.215,380.553 94.500 C 377.979 88.454,377.581 87.600,377.338 87.600 C 377.214 87.600,377.226 88.048,377.363 88.596 M20.200 92.661 C 19.864 93.465,19.682 94.215,19.795 94.328 C 19.908 94.441,20.000 94.435,20.000 94.316 C 20.000 94.196,20.272 93.446,20.605 92.649 C 20.938 91.852,21.121 91.200,21.011 91.200 C 20.901 91.200,20.536 91.858,20.200 92.661 M17.800 98.261 C 17.464 99.065,17.282 99.815,17.395 99.928 C 17.508 100.041,17.600 100.035,17.600 99.916 C 17.600 99.796,17.872 99.046,18.205 98.249 C 18.538 97.452,18.721 96.800,18.611 96.800 C 18.501 96.800,18.136 97.458,17.800 98.261 M46.200 100.800 C 44.636 101.836,45.192 101.837,46.890 100.801 C 47.611 100.362,48.020 100.004,47.800 100.004 C 47.580 100.005,46.860 100.363,46.200 100.800 M16.400 101.284 C 16.400 101.404,16.128 102.154,15.795 102.951 C 15.462 103.748,15.279 104.400,15.389 104.400 C 15.706 104.400,16.833 101.500,16.605 101.272 C 16.492 101.159,16.400 101.165,16.400 101.284 M43.067 105.067 C 42.920 105.213,42.800 105.663,42.800 106.067 C 42.800 106.764,42.097 106.800,28.408 106.800 L 14.015 106.800 13.784 107.722 C 13.056 110.623,13.864 155.022,14.699 158.000 C 23.281 188.602,58.612 199.587,82.511 179.084 C 90.525 172.209,95.237 162.441,96.439 150.211 C 97.093 143.559,98.856 141.143,103.104 141.079 C 107.844 141.007,109.912 143.790,110.429 150.935 C 112.699 182.316,146.766 199.651,173.707 183.135 C 184.902 176.272,191.517 165.201,193.004 150.839 C 193.743 143.695,195.434 141.419,200.000 141.419 C 204.570 141.419,206.274 143.713,207.006 150.849 C 208.112 161.623,211.416 169.280,217.937 176.175 C 242.960 202.633,286.598 187.356,289.604 151.085 C 290.131 144.719,291.355 142.544,294.964 141.561 C 300.099 140.162,302.828 143.092,303.592 150.826 C 306.814 183.414,341.585 200.290,368.383 182.270 C 378.863 175.222,385.007 164.346,386.387 150.401 C 387.003 144.175,388.477 141.981,392.473 141.342 L 394.010 141.096 393.905 127.319 L 393.800 113.542 221.000 113.471 C 57.300 113.404,48.133 113.363,46.921 112.700 C 44.720 111.497,43.511 109.511,43.452 107.000 C 43.423 105.791,43.385 104.801,43.367 104.801 C 43.348 104.800,43.213 104.920,43.067 105.067 " stroke="none" fill="#fa576c" fill-rule="evenodd"></path><path id="path1" d="M46.000 0.292 C 45.115 0.631,43.600 2.353,43.600 3.021 C 43.600 3.339,43.420 3.600,43.200 3.600 C 42.980 3.600,42.800 4.140,42.800 4.800 C 42.800 5.460,42.620 6.000,42.400 6.000 C 42.180 6.000,42.000 6.360,42.000 6.800 C 42.000 7.240,41.820 7.600,41.600 7.600 C 41.380 7.600,41.200 7.960,41.200 8.400 C 41.200 8.840,41.020 9.200,40.800 9.200 C 40.580 9.200,40.400 9.650,40.400 10.200 C 40.400 10.750,40.220 11.200,40.000 11.200 C 39.780 11.200,39.600 11.560,39.600 12.000 C 39.600 12.440,39.420 12.800,39.200 12.800 C 38.980 12.800,38.800 13.072,38.800 13.405 C 38.800 13.993,38.633 14.418,37.662 16.295 C 37.408 16.787,37.200 17.462,37.200 17.795 C 37.200 18.128,37.020 18.400,36.800 18.400 C 36.580 18.400,36.400 18.760,36.400 19.200 C 36.400 19.640,36.253 20.000,36.072 20.000 C 35.892 20.000,35.500 20.900,35.200 22.000 C 34.900 23.100,34.508 24.000,34.328 24.000 C 34.147 24.000,34.000 24.360,34.000 24.800 C 34.000 25.240,33.820 25.600,33.600 25.600 C 33.380 25.600,33.200 25.949,33.200 26.376 C 33.200 26.803,33.020 27.264,32.800 27.400 C 32.580 27.536,32.400 27.997,32.400 28.424 C 32.400 28.851,32.220 29.200,32.000 29.200 C 31.780 29.200,31.600 29.436,31.600 29.725 C 31.600 30.014,31.240 30.995,30.800 31.906 C 30.360 32.816,30.000 33.840,30.000 34.181 C 30.000 34.521,29.820 34.800,29.600 34.800 C 29.380 34.800,29.200 35.036,29.200 35.325 C 29.200 35.614,28.825 36.626,28.367 37.574 C 27.909 38.523,27.435 39.906,27.315 40.649 C 27.194 41.392,26.939 42.000,26.748 42.000 C 26.556 42.000,26.400 42.360,26.400 42.800 C 26.400 43.240,26.220 43.600,26.000 43.600 C 25.780 43.600,25.600 43.960,25.600 44.400 C 25.600 44.840,25.420 45.200,25.200 45.200 C 24.980 45.200,24.800 45.650,24.800 46.200 C 24.800 46.750,24.620 47.200,24.400 47.200 C 24.180 47.200,24.000 47.560,24.000 48.000 C 24.000 48.440,23.820 48.800,23.600 48.800 C 23.380 48.800,23.200 49.149,23.200 49.576 C 23.200 50.003,23.020 50.464,22.800 50.600 C 22.580 50.736,22.400 51.287,22.400 51.824 C 22.400 52.361,22.220 52.800,22.000 52.800 C 21.780 52.800,21.600 53.160,21.600 53.600 C 21.600 54.040,21.420 54.400,21.200 54.400 C 20.980 54.400,20.800 54.760,20.800 55.200 C 20.800 55.640,20.620 56.000,20.400 56.000 C 20.180 56.000,20.000 56.540,20.000 57.200 C 20.000 57.860,19.820 58.400,19.600 58.400 C 19.380 58.400,19.200 58.760,19.200 59.200 C 19.200 59.640,19.020 60.000,18.800 60.000 C 18.580 60.000,18.400 60.360,18.400 60.800 C 18.400 61.240,18.220 61.600,18.000 61.600 C 17.780 61.600,17.600 62.050,17.600 62.600 C 17.600 63.150,17.420 63.600,17.200 63.600 C 16.980 63.600,16.800 63.960,16.800 64.400 C 16.800 64.840,16.620 65.200,16.400 65.200 C 16.180 65.200,16.000 65.472,16.000 65.805 C 16.000 66.393,15.833 66.818,14.862 68.695 C 14.608 69.187,14.400 69.862,14.400 70.195 C 14.400 70.528,14.220 70.800,14.000 70.800 C 13.780 70.800,13.600 71.160,13.600 71.600 C 13.600 72.040,13.459 72.400,13.287 72.400 C 13.115 72.400,12.726 73.255,12.422 74.300 C 12.118 75.345,11.764 76.290,11.635 76.400 C 11.056 76.893,10.394 78.499,10.156 79.983 C 10.014 80.872,9.741 81.600,9.549 81.600 C 9.357 81.600,9.200 81.960,9.200 82.400 C 9.200 82.840,9.020 83.200,8.800 83.200 C 8.580 83.200,8.400 83.560,8.400 84.000 C 8.400 84.440,8.220 84.800,8.000 84.800 C 7.780 84.800,7.600 85.239,7.600 85.776 C 7.600 86.313,7.420 86.864,7.200 87.000 C 6.980 87.136,6.800 87.597,6.800 88.024 C 6.800 88.451,6.620 88.800,6.400 88.800 C 6.180 88.800,6.000 89.160,6.000 89.600 C 6.000 90.040,5.820 90.400,5.600 90.400 C 5.380 90.400,5.200 90.749,5.200 91.176 C 5.200 91.603,5.020 92.064,4.800 92.200 C 4.580 92.336,4.400 92.797,4.400 93.224 C 4.400 93.651,4.220 94.000,4.000 94.000 C 3.780 94.000,3.600 94.349,3.600 94.776 C 3.600 95.203,3.420 95.664,3.200 95.800 C 2.980 95.936,2.800 96.397,2.800 96.824 C 2.800 97.251,2.620 97.600,2.400 97.600 C 2.180 97.600,2.000 98.050,2.000 98.600 C 2.000 99.150,1.820 99.600,1.600 99.600 C 1.380 99.600,1.200 99.945,1.200 100.367 C 1.200 100.788,0.975 101.208,0.700 101.300 C 0.306 101.432,0.200 107.769,0.200 131.200 C 0.200 154.631,0.306 160.969,0.700 161.100 C 0.987 161.196,1.200 161.936,1.200 162.833 C 1.200 163.695,1.380 164.400,1.600 164.400 C 1.820 164.400,2.000 164.940,2.000 165.600 C 2.000 166.260,2.180 166.800,2.400 166.800 C 2.620 166.800,2.800 167.250,2.800 167.800 C 2.800 168.350,2.980 168.800,3.200 168.800 C 3.420 168.800,3.600 169.250,3.600 169.800 C 3.600 170.350,3.780 170.800,4.000 170.800 C 4.220 170.800,4.400 171.160,4.400 171.600 C 4.400 172.040,4.580 172.400,4.800 172.400 C 5.020 172.400,5.200 172.760,5.200 173.200 C 5.200 173.640,5.380 174.000,5.600 174.000 C 5.820 174.000,6.000 174.270,6.000 174.600 C 6.000 174.930,6.180 175.200,6.400 175.200 C 6.620 175.200,6.800 175.520,6.800 175.912 C 6.800 176.303,7.160 176.883,7.600 177.200 C 8.040 177.517,8.400 178.057,8.400 178.400 C 8.400 178.743,8.760 179.283,9.200 179.600 C 9.640 179.917,10.000 180.469,10.000 180.826 C 10.000 181.951,16.284 188.872,18.933 190.665 C 19.850 191.286,20.891 192.110,21.247 192.497 C 21.603 192.883,22.148 193.200,22.459 193.200 C 22.769 193.200,23.283 193.560,23.600 194.000 C 23.917 194.440,24.497 194.800,24.888 194.800 C 25.280 194.800,25.600 194.992,25.600 195.227 C 25.600 195.462,25.934 195.548,26.343 195.418 C 26.774 195.281,27.990 195.653,29.243 196.304 C 54.859 209.623,85.059 201.784,101.000 177.680 C 102.890 174.821,104.000 173.756,104.000 174.799 C 104.000 175.986,109.362 182.992,113.184 186.800 C 119.606 193.197,126.139 197.277,134.200 199.922 C 149.572 204.965,168.080 202.875,180.272 194.719 C 181.192 194.103,182.045 193.600,182.167 193.600 C 182.427 193.600,182.607 193.458,187.500 189.403 C 189.535 187.716,191.207 186.216,191.215 186.068 C 191.224 185.921,192.214 184.723,193.415 183.407 C 194.617 182.091,195.600 180.904,195.600 180.770 C 195.600 180.635,196.038 180.015,196.573 179.392 C 197.109 178.768,197.947 177.480,198.436 176.529 C 199.583 174.300,200.424 174.314,201.591 176.582 C 202.095 177.563,202.798 178.694,203.154 179.097 C 203.509 179.500,204.242 180.453,204.782 181.215 C 205.714 182.530,207.389 184.473,209.600 186.801 C 210.150 187.381,211.860 188.895,213.400 190.166 C 217.274 193.364,217.579 193.600,217.833 193.600 C 217.955 193.600,218.808 194.113,219.728 194.741 C 221.569 195.997,228.061 199.200,228.766 199.200 C 229.011 199.200,229.523 199.365,229.905 199.566 C 234.674 202.080,250.288 203.496,257.400 202.059 C 273.347 198.836,285.293 191.104,293.773 178.515 C 295.287 176.268,296.674 174.522,296.856 174.634 C 297.038 174.747,298.025 176.135,299.049 177.719 C 314.336 201.354,345.597 209.667,370.167 196.632 C 372.052 195.632,373.156 195.274,373.832 195.444 C 374.420 195.591,374.800 195.513,374.800 195.243 C 374.800 195.000,375.030 194.800,375.312 194.800 C 375.593 194.800,376.083 194.440,376.400 194.000 C 376.717 193.560,377.215 193.200,377.506 193.200 C 377.798 193.200,378.453 192.795,378.963 192.300 C 379.473 191.805,380.302 191.130,380.807 190.800 C 382.645 189.598,385.485 186.957,386.826 185.203 C 387.582 184.214,388.605 182.991,389.100 182.484 C 389.595 181.978,390.000 181.419,390.000 181.243 C 390.000 181.067,390.360 180.507,390.800 180.000 C 391.240 179.493,391.600 178.785,391.600 178.427 C 391.600 178.069,391.960 177.517,392.400 177.200 C 392.840 176.883,393.200 176.303,393.200 175.912 C 393.200 175.520,393.380 175.200,393.600 175.200 C 393.820 175.200,394.000 174.930,394.000 174.600 C 394.000 174.270,394.180 174.000,394.400 174.000 C 394.620 174.000,394.800 173.640,394.800 173.200 C 394.800 172.760,394.980 172.400,395.200 172.400 C 395.420 172.400,395.600 172.040,395.600 171.600 C 395.600 171.160,395.780 170.800,396.000 170.800 C 396.220 170.800,396.400 170.361,396.400 169.824 C 396.400 169.287,396.580 168.736,396.800 168.600 C 397.020 168.464,397.200 168.003,397.200 167.576 C 397.200 167.149,397.380 166.800,397.600 166.800 C 397.820 166.800,398.000 166.260,398.000 165.600 C 398.000 164.940,398.180 164.400,398.400 164.400 C 398.620 164.400,398.800 163.695,398.800 162.833 C 398.800 161.972,399.003 161.199,399.250 161.117 C 399.555 161.015,399.767 158.324,399.905 152.773 L 400.110 144.580 398.433 142.834 L 396.756 141.088 394.155 141.331 C 389.526 141.764,386.815 144.237,386.787 148.054 C 386.765 151.066,385.536 158.377,384.610 161.000 C 380.137 173.673,370.365 183.484,358.200 187.514 C 352.923 189.262,351.926 189.400,344.800 189.374 C 337.675 189.348,337.056 189.256,331.200 187.350 C 315.426 182.218,303.260 165.272,303.207 148.359 C 303.185 141.336,294.356 138.933,290.913 145.012 C 290.257 146.170,290.011 147.257,290.007 149.027 C 289.992 154.287,288.083 161.912,285.624 166.527 C 284.172 169.254,282.725 171.687,282.212 172.265 C 281.986 172.520,280.990 173.741,280.000 174.977 C 275.952 180.031,270.745 183.698,262.600 187.234 C 256.877 189.719,243.969 190.274,237.510 188.313 C 219.535 182.857,208.434 169.240,206.804 150.646 C 206.184 143.577,204.817 141.800,200.000 141.800 C 195.262 141.800,193.778 143.707,193.224 150.508 C 191.721 168.948,180.362 182.918,162.490 188.306 C 155.986 190.267,143.119 189.717,137.400 187.234 C 120.298 179.810,110.084 165.485,109.994 148.800 C 109.957 141.905,102.725 138.535,98.440 143.416 C 97.155 144.880,97.103 145.093,96.405 151.800 C 94.663 168.560,83.786 182.331,68.200 187.511 C 62.991 189.243,61.892 189.400,55.000 189.400 C 48.090 189.400,46.935 189.234,41.800 187.498 C 26.270 182.248,15.829 169.201,13.610 152.271 C 13.023 147.790,13.063 108.774,13.656 107.319 C 14.621 104.953,15.149 103.722,16.157 101.488 C 16.731 100.217,17.200 99.097,17.200 99.000 C 17.200 98.903,17.629 97.873,18.153 96.712 C 19.572 93.568,21.789 88.481,24.478 82.200 C 25.796 79.120,27.308 75.650,27.837 74.488 C 28.367 73.327,28.800 72.297,28.800 72.200 C 28.800 72.103,29.250 71.028,29.800 69.812 C 30.350 68.595,31.250 66.605,31.800 65.388 C 32.350 64.172,32.800 63.097,32.800 63.000 C 32.800 62.903,33.232 61.873,33.761 60.712 C 34.289 59.550,35.530 56.710,36.517 54.400 C 38.335 50.150,41.898 41.934,43.198 39.000 C 43.587 38.120,44.488 36.050,45.199 34.400 C 45.911 32.750,46.922 30.450,47.446 29.288 C 47.971 28.127,48.400 27.097,48.400 27.000 C 48.400 26.903,48.850 25.828,49.400 24.612 C 49.950 23.395,50.850 21.405,51.400 20.188 C 51.950 18.972,52.400 17.897,52.400 17.800 C 52.400 17.703,52.855 16.628,53.412 15.411 L 54.424 13.199 200.080 13.299 L 345.736 13.400 348.082 18.800 C 349.372 21.770,350.691 24.807,351.014 25.549 C 351.336 26.291,351.600 26.960,351.600 27.037 C 351.600 27.114,352.069 28.217,352.643 29.488 C 353.217 30.760,353.937 32.385,354.243 33.100 C 355.674 36.441,355.968 37.117,356.718 38.800 C 357.159 39.790,358.329 42.490,359.317 44.800 C 361.799 50.602,365.099 58.183,366.244 60.712 C 366.770 61.873,367.200 62.903,367.200 63.000 C 367.200 63.097,367.650 64.172,368.200 65.388 C 368.750 66.605,369.650 68.595,370.200 69.812 C 370.750 71.028,371.200 72.103,371.200 72.200 C 371.200 72.297,371.632 73.327,372.159 74.488 C 372.687 75.650,373.608 77.770,374.205 79.200 C 374.803 80.630,375.625 82.520,376.032 83.400 C 378.070 87.805,382.800 99.055,382.800 99.496 C 382.800 99.900,349.794 100.000,215.996 100.000 L 49.191 100.000 47.389 100.847 C 42.646 103.077,42.185 109.599,46.582 112.262 C 47.760 112.976,53.592 113.007,222.400 113.200 L 397.000 113.400 398.549 111.817 L 400.097 110.233 399.914 106.102 C 399.809 103.741,399.531 101.771,399.265 101.505 C 399.009 101.249,398.800 100.716,398.800 100.320 C 398.800 99.924,398.620 99.600,398.400 99.600 C 398.180 99.600,398.000 99.328,398.000 98.995 C 398.000 98.662,397.792 97.987,397.538 97.495 C 396.567 95.618,396.400 95.193,396.400 94.605 C 396.400 94.272,396.220 94.000,396.000 94.000 C 395.780 94.000,395.600 93.550,395.600 93.000 C 395.600 92.450,395.420 92.000,395.200 92.000 C 394.980 92.000,394.800 91.640,394.800 91.200 C 394.800 90.760,394.620 90.400,394.400 90.400 C 394.180 90.400,394.000 90.040,394.000 89.600 C 394.000 89.160,393.820 88.800,393.600 88.800 C 393.380 88.800,393.200 88.350,393.200 87.800 C 393.200 87.250,393.020 86.800,392.800 86.800 C 392.580 86.800,392.400 86.350,392.400 85.800 C 392.400 85.250,392.220 84.800,392.000 84.800 C 391.780 84.800,391.600 84.512,391.600 84.160 C 391.600 83.809,391.312 82.864,390.959 82.060 C 390.607 81.257,390.172 80.240,389.993 79.800 C 389.814 79.360,389.428 78.415,389.136 77.700 C 388.844 76.985,388.501 76.400,388.375 76.400 C 388.248 76.400,387.900 75.500,387.600 74.400 C 387.300 73.300,386.908 72.400,386.728 72.400 C 386.547 72.400,386.400 72.040,386.400 71.600 C 386.400 71.160,386.220 70.800,386.000 70.800 C 385.780 70.800,385.600 70.451,385.600 70.024 C 385.600 69.597,385.420 69.136,385.200 69.000 C 384.980 68.864,384.800 68.313,384.800 67.776 C 384.800 67.239,384.620 66.800,384.400 66.800 C 384.180 66.800,384.000 66.440,384.000 66.000 C 384.000 65.560,383.820 65.200,383.600 65.200 C 383.380 65.200,383.200 64.851,383.200 64.424 C 383.200 63.997,383.020 63.536,382.800 63.400 C 382.580 63.264,382.400 62.803,382.400 62.376 C 382.400 61.949,382.220 61.600,382.000 61.600 C 381.780 61.600,381.600 61.240,381.600 60.800 C 381.600 60.360,381.420 60.000,381.200 60.000 C 380.980 60.000,380.800 59.640,380.800 59.200 C 380.800 58.760,380.620 58.400,380.400 58.400 C 380.180 58.400,380.000 57.860,380.000 57.200 C 380.000 56.540,379.820 56.000,379.600 56.000 C 379.380 56.000,379.200 55.640,379.200 55.200 C 379.200 54.760,379.020 54.400,378.800 54.400 C 378.580 54.400,378.400 54.040,378.400 53.600 C 378.400 53.160,378.220 52.800,378.000 52.800 C 377.780 52.800,377.600 52.361,377.600 51.824 C 377.600 51.287,377.420 50.736,377.200 50.600 C 376.980 50.464,376.800 50.003,376.800 49.576 C 376.800 49.149,376.620 48.800,376.400 48.800 C 376.180 48.800,376.000 48.440,376.000 48.000 C 376.000 47.560,375.836 47.200,375.635 47.200 C 375.434 47.200,375.149 46.481,375.000 45.602 C 374.852 44.723,374.566 43.903,374.365 43.778 C 374.164 43.654,374.000 43.203,374.000 42.776 C 374.000 42.349,373.820 42.000,373.600 42.000 C 373.380 42.000,373.200 41.728,373.200 41.395 C 373.200 41.062,373.020 40.432,372.800 39.995 C 372.580 39.558,372.220 38.842,372.000 38.405 C 371.780 37.968,371.600 37.338,371.600 37.005 C 371.600 36.672,371.420 36.400,371.200 36.400 C 370.980 36.400,370.800 36.040,370.800 35.600 C 370.800 35.160,370.620 34.800,370.400 34.800 C 370.180 34.800,370.000 34.445,370.000 34.012 C 370.000 33.579,369.640 32.583,369.200 31.800 C 368.760 31.017,368.400 30.111,368.400 29.788 C 368.400 29.465,368.220 29.200,368.000 29.200 C 367.780 29.200,367.600 28.851,367.600 28.424 C 367.600 27.997,367.420 27.536,367.200 27.400 C 366.980 27.264,366.800 26.803,366.800 26.376 C 366.800 25.949,366.620 25.600,366.400 25.600 C 366.180 25.600,366.000 25.240,366.000 24.800 C 366.000 24.360,365.820 24.000,365.600 24.000 C 365.380 24.000,365.200 23.651,365.200 23.224 C 365.200 22.797,365.020 22.336,364.800 22.200 C 364.580 22.064,364.400 21.513,364.400 20.976 C 364.400 20.439,364.220 20.000,364.000 20.000 C 363.780 20.000,363.600 19.640,363.600 19.200 C 363.600 18.760,363.420 18.400,363.200 18.400 C 362.980 18.400,362.800 18.040,362.800 17.600 C 362.800 17.160,362.620 16.800,362.400 16.800 C 362.180 16.800,362.000 16.361,362.000 15.824 C 362.000 15.287,361.820 14.736,361.600 14.600 C 361.380 14.464,361.200 14.003,361.200 13.576 C 361.200 13.149,361.020 12.800,360.800 12.800 C 360.580 12.800,360.400 12.440,360.400 12.000 C 360.400 11.560,360.220 11.200,360.000 11.200 C 359.780 11.200,359.600 10.750,359.600 10.200 C 359.600 9.650,359.436 9.200,359.235 9.200 C 359.034 9.200,358.749 8.480,358.600 7.600 C 358.451 6.720,358.166 6.000,357.965 6.000 C 357.764 6.000,357.600 5.735,357.600 5.412 C 357.600 4.596,356.089 1.964,355.067 1.000 C 354.235 0.215,48.029 -0.487,46.000 0.292 M24.000 218.800 C 24.000 219.020,23.724 219.200,23.387 219.200 C 22.468 219.200,20.269 221.604,19.700 223.228 C 19.056 225.067,18.957 371.200,19.600 371.200 C 19.820 371.200,20.000 372.100,20.000 373.200 C 20.000 374.300,20.180 375.200,20.400 375.200 C 20.620 375.200,20.800 375.729,20.800 376.376 C 20.800 377.023,20.980 377.664,21.200 377.800 C 21.420 377.936,21.600 378.487,21.600 379.024 C 21.600 379.561,21.780 380.000,22.000 380.000 C 22.220 380.000,22.400 380.360,22.400 380.800 C 22.400 381.240,22.580 381.600,22.800 381.600 C 23.020 381.600,23.200 381.960,23.200 382.400 C 23.200 382.840,23.380 383.200,23.600 383.200 C 23.820 383.200,24.000 383.560,24.000 384.000 C 24.000 384.440,24.180 384.800,24.400 384.800 C 24.620 384.800,24.800 385.070,24.800 385.400 C 24.800 385.730,24.980 386.000,25.200 386.000 C 25.420 386.000,25.600 386.188,25.600 386.418 C 25.600 386.648,26.005 387.264,26.500 387.787 C 26.995 388.311,27.914 389.382,28.542 390.169 C 29.170 390.956,29.859 391.600,30.073 391.600 C 30.287 391.600,31.154 392.320,32.000 393.200 C 32.846 394.080,33.739 394.800,33.985 394.800 C 34.232 394.800,34.820 395.160,35.292 395.600 C 35.764 396.040,36.387 396.400,36.675 396.400 C 36.964 396.400,37.200 396.580,37.200 396.800 C 37.200 397.020,37.560 397.200,38.000 397.200 C 38.440 397.200,38.800 397.380,38.800 397.600 C 38.800 397.820,39.340 398.000,40.000 398.000 C 40.660 398.000,41.200 398.180,41.200 398.400 C 41.200 398.620,41.524 398.800,41.920 398.800 C 42.316 398.800,42.865 399.025,43.140 399.300 C 43.876 400.036,356.855 400.036,357.100 399.300 C 357.192 399.025,357.612 398.800,358.033 398.800 C 358.455 398.800,358.800 398.620,358.800 398.400 C 358.800 398.180,359.340 398.000,360.000 398.000 C 360.660 398.000,361.200 397.820,361.200 397.600 C 361.200 397.380,361.560 397.200,362.000 397.200 C 362.440 397.200,362.800 397.020,362.800 396.800 C 362.800 396.580,363.036 396.400,363.325 396.400 C 363.613 396.400,364.236 396.040,364.708 395.600 C 365.180 395.160,365.768 394.800,366.015 394.800 C 366.261 394.800,367.154 394.080,368.000 393.200 C 368.846 392.320,369.705 391.600,369.910 391.600 C 370.426 391.600,374.073 387.366,374.773 385.955 C 375.087 385.320,375.492 384.800,375.673 384.800 C 375.853 384.800,376.000 384.440,376.000 384.000 C 376.000 383.560,376.180 383.200,376.400 383.200 C 376.620 383.200,376.800 382.840,376.800 382.400 C 376.800 381.960,376.980 381.600,377.200 381.600 C 377.420 381.600,377.600 381.240,377.600 380.800 C 377.600 380.360,377.780 380.000,378.000 380.000 C 378.220 380.000,378.400 379.460,378.400 378.800 C 378.400 378.140,378.580 377.600,378.800 377.600 C 379.020 377.600,379.200 377.060,379.200 376.400 C 379.200 375.740,379.380 375.200,379.600 375.200 C 379.820 375.200,380.000 374.210,380.000 373.000 C 380.000 371.790,380.180 370.800,380.400 370.800 C 380.665 370.800,380.800 346.067,380.800 297.400 C 380.800 248.733,380.665 224.000,380.400 224.000 C 380.180 224.000,380.000 223.544,380.000 222.987 C 380.000 221.860,377.621 219.200,376.613 219.200 C 376.276 219.200,376.000 219.020,376.000 218.800 C 376.000 218.155,373.711 218.335,373.455 219.000 C 373.329 219.330,372.752 219.600,372.174 219.600 C 370.890 219.600,369.142 220.797,367.916 222.516 L 367.000 223.800 366.800 297.600 L 366.600 371.400 365.544 373.865 C 362.922 379.980,358.555 384.003,352.400 385.972 C 349.802 386.803,349.746 386.803,278.200 386.702 L 206.600 386.600 206.400 332.969 L 206.200 279.338 205.076 277.864 C 202.422 274.385,197.578 274.385,194.924 277.864 L 193.800 279.338 193.600 332.969 L 193.400 386.600 166.200 386.600 L 139.000 386.600 138.880 330.400 C 138.792 289.157,138.884 273.402,139.225 271.200 C 140.475 263.138,146.321 256.669,154.217 254.612 C 157.761 253.689,242.239 253.689,245.783 254.612 C 251.778 256.174,256.689 260.347,259.375 266.162 C 261.185 270.081,261.200 270.497,261.200 317.345 L 261.200 361.691 262.047 363.198 C 264.502 367.566,271.146 367.247,273.228 362.662 C 274.252 360.405,274.416 274.582,273.407 269.000 C 271.411 257.964,265.194 249.409,255.712 244.647 C 253.752 243.663,252.939 243.364,248.400 241.958 C 245.722 241.128,154.278 241.128,151.600 241.958 C 146.898 243.414,146.040 243.746,143.688 245.016 C 136.978 248.641,131.552 254.526,128.826 261.138 C 127.800 263.626,127.524 264.602,126.411 269.677 C 126.140 270.915,126.000 291.180,126.000 329.177 L 126.000 386.800 88.100 386.796 C 46.867 386.791,48.971 386.900,44.045 384.521 C 42.738 383.890,40.707 382.343,39.183 380.818 C 36.803 378.437,36.146 377.406,33.949 372.600 C 33.492 371.602,33.366 358.967,33.200 297.600 L 33.000 223.800 32.084 222.516 C 30.858 220.797,29.110 219.600,27.826 219.600 C 27.248 219.600,26.671 219.330,26.545 219.000 C 26.289 218.335,24.000 218.155,24.000 218.800 " stroke="none" fill="#050505" fill-rule="evenodd"></path><path id="path2" d="M102.512 176.384 C 100.070 180.816,90.416 191.600,88.892 191.600 C 88.718 191.600,88.317 191.960,88.000 192.400 C 87.683 192.840,87.227 193.200,86.987 193.200 C 86.747 193.200,86.193 193.515,85.755 193.900 C 84.967 194.593,84.448 194.919,81.645 196.480 C 80.850 196.923,80.020 197.421,79.800 197.588 C 78.951 198.229,70.873 201.172,68.400 201.741 C 55.392 204.733,42.299 203.317,30.802 197.674 C 28.711 196.648,26.862 195.745,26.694 195.669 C 26.525 195.592,26.435 200.693,26.494 207.005 L 26.600 218.481 28.555 219.223 C 29.631 219.631,30.959 220.378,31.507 220.882 C 33.720 222.921,33.600 218.586,33.600 296.323 C 33.600 367.181,33.612 368.320,34.407 371.429 C 36.295 378.810,41.950 384.229,49.400 385.797 C 51.747 386.291,58.131 386.387,88.897 386.393 L 125.595 386.400 125.716 327.700 C 125.783 295.415,125.973 268.460,126.138 267.800 C 126.774 265.255,127.303 263.368,127.595 262.600 C 131.869 251.343,141.537 243.346,153.800 240.926 C 154.680 240.752,175.470 240.610,200.000 240.610 C 224.530 240.610,245.320 240.752,246.200 240.926 C 248.405 241.361,250.807 242.013,252.000 242.499 C 252.550 242.723,253.450 243.084,254.000 243.300 C 260.975 246.043,268.140 252.918,271.193 259.800 C 272.637 263.056,272.798 263.538,273.862 267.800 C 274.026 268.460,274.216 289.862,274.284 315.359 L 274.407 361.718 273.413 363.414 C 270.770 367.924,264.678 368.037,261.710 363.631 L 260.800 362.282 260.800 318.757 C 260.800 277.114,260.652 270.775,259.622 268.200 C 256.983 261.607,252.892 257.501,247.003 255.534 L 244.205 254.600 199.803 254.600 L 155.400 254.600 152.800 255.556 C 148.589 257.105,145.216 259.722,142.949 263.200 C 141.861 264.869,141.408 265.748,140.423 268.100 C 139.332 270.707,139.200 277.417,139.200 330.431 C 139.200 360.518,139.309 385.419,139.443 385.767 C 139.661 386.335,142.395 386.400,166.243 386.400 L 192.800 386.400 192.800 334.206 C 192.800 294.419,192.916 281.578,193.288 280.188 C 195.195 273.057,204.805 273.057,206.712 280.188 C 207.084 281.578,207.200 294.419,207.200 334.206 L 207.200 386.400 277.500 386.393 C 354.141 386.385,350.745 386.484,355.593 384.133 C 358.474 382.736,362.709 378.469,364.130 375.533 C 366.537 370.558,366.400 375.318,366.400 296.568 C 366.400 236.304,366.491 224.162,366.948 223.087 C 367.730 221.253,369.252 219.995,371.686 219.171 L 373.800 218.456 373.906 207.028 C 373.965 200.742,373.871 195.600,373.698 195.600 C 373.524 195.600,371.677 196.470,369.591 197.533 C 354.051 205.458,333.261 205.040,318.355 196.503 C 317.560 196.048,316.480 195.433,315.955 195.138 C 315.430 194.842,314.910 194.508,314.800 194.395 C 314.690 194.282,313.610 193.512,312.400 192.684 C 311.190 191.857,309.001 190.059,307.536 188.690 C 303.185 184.624,300.768 181.650,297.433 176.258 L 296.727 175.116 294.545 178.375 C 289.118 186.481,282.197 192.776,273.852 197.198 C 259.997 204.539,240.081 205.198,226.104 198.779 C 225.172 198.350,224.314 198.000,224.197 198.000 C 224.081 198.000,222.800 197.280,221.352 196.400 C 219.903 195.520,218.649 194.800,218.564 194.800 C 218.479 194.800,218.092 194.540,217.705 194.222 C 217.317 193.905,215.876 192.810,214.502 191.790 C 209.530 188.098,203.493 181.339,201.009 176.683 C 200.006 174.803,200.049 174.788,198.474 177.540 C 197.745 178.814,196.755 180.323,196.274 180.892 C 195.793 181.462,194.770 182.702,194.000 183.648 C 192.192 185.870,189.031 189.026,186.837 190.800 C 185.885 191.570,184.902 192.380,184.653 192.600 C 184.404 192.820,183.705 193.255,183.100 193.568 C 182.495 193.880,182.000 194.285,182.000 194.468 C 182.000 194.650,181.838 194.800,181.641 194.800 C 181.443 194.800,180.097 195.520,178.648 196.400 C 177.200 197.280,175.919 198.000,175.803 198.000 C 175.686 198.000,174.828 198.344,173.896 198.764 C 162.340 203.973,146.307 204.657,134.000 200.468 C 128.593 198.627,119.593 193.882,118.000 192.032 C 117.890 191.905,116.633 190.810,115.207 189.600 C 112.904 187.646,111.664 186.401,109.600 183.973 C 107.826 181.886,107.343 181.232,105.525 178.446 C 104.434 176.775,103.471 175.338,103.384 175.250 C 103.296 175.163,102.904 175.673,102.512 176.384 " stroke="none" fill="#d6f4fb" fill-rule="evenodd"></path><path id="path3" d="M54.735 14.300 C 54.412 14.685,53.632 16.260,53.004 17.800 C 52.375 19.340,51.423 21.590,50.887 22.800 C 49.883 25.068,49.082 26.914,48.195 29.000 C 47.249 31.224,45.927 34.192,45.362 35.361 C 45.053 36.000,44.800 36.765,44.800 37.061 C 44.800 37.358,44.620 37.600,44.400 37.600 C 44.180 37.600,44.000 37.872,44.000 38.205 C 44.000 38.538,43.840 39.123,43.644 39.505 C 43.304 40.167,42.729 41.439,40.841 45.696 C 40.378 46.738,40.000 47.678,40.000 47.784 C 40.000 47.890,39.571 48.927,39.046 50.088 C 38.522 51.250,37.518 53.550,36.816 55.200 C 36.114 56.850,35.283 58.785,34.970 59.500 C 34.656 60.215,34.130 61.430,33.800 62.200 C 32.296 65.708,32.032 66.319,31.200 68.200 C 30.714 69.300,30.046 70.830,29.716 71.600 C 28.761 73.831,27.543 76.541,27.156 77.295 C 26.960 77.677,26.800 78.262,26.800 78.595 C 26.800 78.928,26.620 79.200,26.400 79.200 C 26.180 79.200,26.000 79.472,26.000 79.805 C 26.000 80.138,25.840 80.723,25.644 81.105 C 25.257 81.860,24.087 84.462,22.994 87.000 C 22.615 87.880,22.071 89.140,21.785 89.800 C 21.500 90.460,20.152 93.610,18.791 96.800 C 16.217 102.829,14.830 105.987,14.529 106.500 C 14.432 106.665,20.753 106.800,28.576 106.800 C 42.389 106.800,42.800 106.778,42.800 106.024 C 42.800 105.597,42.980 105.136,43.200 105.000 C 43.420 104.864,43.600 104.430,43.600 104.036 C 43.600 103.057,45.779 100.851,47.425 100.164 C 48.578 99.682,72.973 99.600,215.377 99.600 L 381.980 99.600 381.564 98.506 C 381.086 97.249,380.366 95.599,378.812 92.200 C 378.209 90.880,377.588 89.350,377.432 88.800 C 377.169 87.874,375.991 85.134,375.156 83.505 C 374.960 83.123,374.800 82.538,374.800 82.205 C 374.800 81.872,374.620 81.600,374.400 81.600 C 374.180 81.600,374.000 81.240,374.000 80.800 C 374.000 80.360,373.820 80.000,373.600 80.000 C 373.380 80.000,373.200 79.561,373.200 79.024 C 373.200 78.487,373.020 77.936,372.800 77.800 C 372.580 77.664,372.400 77.203,372.400 76.776 C 372.400 76.349,372.220 76.000,372.000 76.000 C 371.780 76.000,371.600 75.640,371.600 75.200 C 371.600 74.760,371.420 74.400,371.200 74.400 C 370.980 74.400,370.800 74.051,370.800 73.624 C 370.800 73.197,370.620 72.736,370.400 72.600 C 370.180 72.464,370.000 72.003,370.000 71.576 C 370.000 71.149,369.820 70.800,369.600 70.800 C 369.380 70.800,369.200 70.528,369.200 70.195 C 369.200 69.862,369.020 69.232,368.800 68.795 C 368.580 68.358,368.220 67.642,368.000 67.205 C 367.780 66.768,367.600 66.138,367.600 65.805 C 367.600 65.472,367.420 65.200,367.200 65.200 C 366.980 65.200,366.800 64.958,366.800 64.661 C 366.800 64.365,366.550 63.600,366.244 62.961 C 365.938 62.323,365.379 61.080,365.002 60.200 C 364.625 59.320,363.996 57.880,363.605 57.000 C 360.692 50.457,360.000 48.731,360.000 48.016 C 360.000 47.567,359.820 47.200,359.600 47.200 C 359.380 47.200,359.200 46.840,359.200 46.400 C 359.200 45.960,359.020 45.600,358.800 45.600 C 358.580 45.600,358.400 45.251,358.400 44.824 C 358.400 44.397,358.220 43.936,358.000 43.800 C 357.780 43.664,357.600 43.113,357.600 42.576 C 357.600 42.039,357.420 41.600,357.200 41.600 C 356.980 41.600,356.800 41.240,356.800 40.800 C 356.800 40.360,356.620 40.000,356.400 40.000 C 356.180 40.000,356.000 39.640,356.000 39.200 C 356.000 38.760,355.820 38.400,355.600 38.400 C 355.380 38.400,355.200 37.950,355.200 37.400 C 355.200 36.850,355.020 36.400,354.800 36.400 C 354.580 36.400,354.400 36.045,354.400 35.610 C 354.400 35.176,353.860 33.641,353.200 32.200 C 352.540 30.759,352.000 29.500,352.000 29.402 C 352.000 29.304,351.571 28.273,351.046 27.112 C 350.522 25.950,349.518 23.650,348.815 22.000 C 348.113 20.350,347.192 18.237,346.769 17.304 C 346.346 16.372,346.000 15.402,346.000 15.148 C 346.000 13.576,350.748 13.626,199.962 13.613 C 62.693 13.601,55.294 13.636,54.735 14.300 " stroke="none" fill="#fb7c84" fill-rule="evenodd"></path><path id="path4" d="M54.267 13.467 C 53.757 13.976,54.003 14.495,54.542 14.048 C 54.942 13.716,93.229 13.624,200.504 13.699 C 280.485 13.755,345.840 13.665,345.738 13.500 C 345.509 13.129,54.637 13.096,54.267 13.467 M346.800 16.484 C 346.800 16.916,348.015 19.600,348.211 19.600 C 348.321 19.600,348.133 18.934,347.793 18.121 C 347.193 16.686,346.800 16.038,346.800 16.484 M46.600 31.061 C 46.264 31.865,46.082 32.615,46.195 32.728 C 46.308 32.841,46.400 32.835,46.400 32.716 C 46.400 32.596,46.672 31.846,47.005 31.049 C 47.338 30.252,47.521 29.600,47.411 29.600 C 47.301 29.600,46.936 30.258,46.600 31.061 M45.200 34.084 C 45.200 34.204,44.928 34.954,44.595 35.751 C 44.262 36.548,44.079 37.200,44.189 37.200 C 44.506 37.200,45.633 34.300,45.405 34.072 C 45.292 33.959,45.200 33.965,45.200 34.084 M41.200 43.284 C 41.200 43.404,40.928 44.154,40.595 44.951 C 40.262 45.748,40.079 46.400,40.189 46.400 C 40.506 46.400,41.633 43.500,41.405 43.272 C 41.292 43.159,41.200 43.165,41.200 43.284 M358.400 43.284 C 358.400 43.716,359.615 46.400,359.811 46.400 C 359.921 46.400,359.733 45.734,359.393 44.921 C 358.793 43.486,358.400 42.838,358.400 43.284 M29.590 70.200 C 29.376 70.750,29.009 71.695,28.775 72.300 C 28.541 72.905,28.514 73.220,28.715 73.000 C 29.186 72.483,30.458 69.200,30.187 69.200 C 30.073 69.200,29.805 69.650,29.590 70.200 M27.190 75.800 C 26.976 76.350,26.609 77.295,26.375 77.900 C 26.141 78.505,26.114 78.820,26.315 78.600 C 26.786 78.083,28.058 74.800,27.787 74.800 C 27.673 74.800,27.405 75.250,27.190 75.800 M25.600 79.284 C 25.600 79.404,25.328 80.154,24.995 80.951 C 24.662 81.748,24.479 82.400,24.589 82.400 C 24.906 82.400,26.033 79.500,25.805 79.272 C 25.692 79.159,25.600 79.165,25.600 79.284 M44.396 102.806 C 43.924 103.469,43.627 104.234,43.737 104.506 C 43.884 104.870,43.945 104.858,43.968 104.462 C 43.986 104.166,44.372 103.401,44.827 102.762 C 45.282 102.123,45.564 101.600,45.454 101.600 C 45.344 101.600,44.868 102.143,44.396 102.806 M13.386 129.200 C 13.386 140.970,13.437 145.785,13.500 139.900 C 13.562 134.015,13.562 124.385,13.500 118.500 C 13.437 112.615,13.386 117.430,13.386 129.200 M132.100 113.500 C 177.585 113.556,252.015 113.556,297.500 113.500 C 342.985 113.444,305.770 113.398,214.800 113.398 C 123.830 113.398,86.615 113.444,132.100 113.500 M199.300 141.476 C 199.685 141.576,200.315 141.576,200.700 141.476 C 201.085 141.375,200.770 141.293,200.000 141.293 C 199.230 141.293,198.915 141.375,199.300 141.476 M296.100 141.476 C 296.485 141.576,297.115 141.576,297.500 141.476 C 297.885 141.375,297.570 141.293,296.800 141.293 C 296.030 141.293,295.715 141.375,296.100 141.476 M110.124 149.800 C 110.126 151.120,110.201 151.612,110.290 150.893 C 110.379 150.174,110.377 149.094,110.286 148.493 C 110.195 147.892,110.122 148.480,110.124 149.800 M386.501 149.400 C 386.505 150.280,386.587 150.593,386.683 150.095 C 386.779 149.598,386.775 148.878,386.675 148.495 C 386.575 148.113,386.496 148.520,386.501 149.400 M96.493 149.600 C 96.493 150.370,96.575 150.685,96.676 150.300 C 96.776 149.915,96.776 149.285,96.676 148.900 C 96.575 148.515,96.493 148.830,96.493 149.600 M289.720 150.400 C 289.720 151.610,289.795 152.105,289.887 151.500 C 289.978 150.895,289.978 149.905,289.887 149.300 C 289.795 148.695,289.720 149.190,289.720 150.400 M303.301 150.200 C 303.305 151.080,303.387 151.393,303.483 150.895 C 303.579 150.398,303.575 149.678,303.475 149.295 C 303.375 148.913,303.296 149.320,303.301 150.200 M206.893 152.000 C 206.893 152.770,206.975 153.085,207.076 152.700 C 207.176 152.315,207.176 151.685,207.076 151.300 C 206.975 150.915,206.893 151.230,206.893 152.000 M192.893 152.400 C 192.893 153.170,192.975 153.485,193.076 153.100 C 193.176 152.715,193.176 152.085,193.076 151.700 C 192.975 151.315,192.893 151.630,192.893 152.400 M102.743 175.100 C 102.424 175.485,101.470 176.880,100.624 178.200 C 85.906 201.158,55.763 209.210,30.516 196.928 C 28.452 195.924,26.671 195.196,26.558 195.309 C 26.230 195.637,34.287 199.445,37.800 200.622 C 46.731 203.615,58.400 204.041,68.400 201.741 C 70.873 201.172,78.951 198.229,79.800 197.588 C 80.020 197.421,80.850 196.923,81.645 196.480 C 84.448 194.919,84.967 194.593,85.755 193.900 C 86.193 193.515,86.747 193.200,86.987 193.200 C 87.227 193.200,87.683 192.840,88.000 192.400 C 88.317 191.960,88.718 191.600,88.892 191.600 C 90.372 191.600,100.183 180.733,102.139 176.925 C 103.152 174.955,103.352 175.030,105.317 178.114 C 108.359 182.891,111.233 186.228,115.207 189.600 C 116.633 190.810,117.890 191.905,118.000 192.032 C 119.593 193.882,128.593 198.627,134.000 200.468 C 146.307 204.657,162.340 203.973,173.896 198.764 C 174.828 198.344,175.686 198.000,175.803 198.000 C 175.919 198.000,177.200 197.280,178.648 196.400 C 180.097 195.520,181.443 194.800,181.641 194.800 C 181.838 194.800,182.000 194.650,182.000 194.468 C 182.000 194.285,182.495 193.880,183.100 193.568 C 183.705 193.255,184.404 192.820,184.653 192.600 C 184.902 192.380,185.885 191.570,186.837 190.800 C 189.031 189.026,192.192 185.870,194.000 183.648 C 194.770 182.702,195.793 181.462,196.274 180.892 C 196.755 180.323,197.745 178.814,198.474 177.540 C 200.049 174.788,200.006 174.803,201.009 176.683 C 203.493 181.339,209.530 188.098,214.502 191.790 C 215.876 192.810,217.317 193.905,217.705 194.222 C 218.092 194.540,218.479 194.800,218.564 194.800 C 218.649 194.800,219.903 195.520,221.352 196.400 C 222.800 197.280,224.081 198.000,224.197 198.000 C 224.314 198.000,225.172 198.350,226.104 198.779 C 249.866 209.692,279.492 200.860,294.545 178.375 L 296.727 175.116 297.433 176.258 C 300.768 181.650,303.185 184.624,307.536 188.690 C 309.001 190.059,311.190 191.857,312.400 192.684 C 313.610 193.512,314.690 194.282,314.800 194.395 C 314.910 194.508,315.430 194.842,315.955 195.138 C 316.480 195.433,317.560 196.048,318.355 196.503 C 330.626 203.532,347.645 205.185,361.800 200.725 C 365.777 199.471,374.088 195.563,373.320 195.307 C 373.099 195.233,371.692 195.823,370.194 196.618 C 345.596 209.667,314.344 201.366,299.049 177.719 C 298.025 176.135,297.038 174.747,296.856 174.634 C 296.674 174.522,295.287 176.268,293.773 178.515 C 285.293 191.104,273.347 198.836,257.400 202.059 C 250.288 203.496,234.674 202.080,229.905 199.566 C 229.523 199.365,229.011 199.200,228.766 199.200 C 228.061 199.200,221.569 195.997,219.728 194.741 C 218.808 194.113,217.955 193.600,217.833 193.600 C 217.579 193.600,217.274 193.364,213.400 190.166 C 211.860 188.895,210.150 187.381,209.600 186.801 C 207.389 184.473,205.714 182.530,204.782 181.215 C 204.242 180.453,203.509 179.500,203.154 179.097 C 202.798 178.694,202.095 177.563,201.591 176.582 C 200.424 174.314,199.583 174.300,198.436 176.529 C 197.947 177.480,197.109 178.768,196.573 179.392 C 196.038 180.015,195.600 180.635,195.600 180.770 C 195.600 180.904,194.617 182.091,193.415 183.407 C 192.214 184.723,191.224 185.921,191.215 186.068 C 191.207 186.216,189.535 187.716,187.500 189.403 C 182.607 193.458,182.427 193.600,182.167 193.600 C 182.045 193.600,181.192 194.103,180.272 194.719 C 170.801 201.055,153.916 204.345,142.600 202.059 C 129.863 199.485,121.630 195.214,113.184 186.800 C 109.412 183.042,104.000 175.990,104.000 174.832 C 104.000 174.183,103.397 174.312,102.743 175.100 M182.175 176.100 L 181.000 177.400 182.300 176.225 C 183.512 175.130,183.784 174.800,183.475 174.800 C 183.406 174.800,182.821 175.385,182.175 176.100 M216.400 174.925 C 216.400 174.994,216.985 175.579,217.700 176.225 L 219.000 177.400 217.825 176.100 C 216.730 174.888,216.400 174.616,216.400 174.925 M121.200 176.525 C 121.200 176.594,121.785 177.179,122.500 177.825 L 123.800 179.000 122.625 177.700 C 121.530 176.488,121.200 176.216,121.200 176.525 M277.375 177.700 L 276.200 179.000 277.500 177.825 C 278.215 177.179,278.800 176.594,278.800 176.525 C 278.800 176.216,278.470 176.488,277.375 177.700 M179.375 178.900 L 178.200 180.200 179.500 179.025 C 180.215 178.379,180.800 177.794,180.800 177.725 C 180.800 177.416,180.470 177.688,179.375 178.900 M26.493 218.887 C 26.586 219.169,27.182 219.461,27.818 219.535 C 29.261 219.703,30.890 220.842,32.084 222.516 L 33.000 223.800 33.200 297.600 C 33.366 358.967,33.492 371.602,33.949 372.600 C 36.146 377.406,36.803 378.437,39.183 380.818 C 40.707 382.343,42.738 383.890,44.045 384.521 C 48.971 386.900,46.867 386.791,88.100 386.796 L 126.000 386.800 126.000 329.177 C 126.000 291.180,126.140 270.915,126.411 269.677 C 127.524 264.602,127.800 263.626,128.826 261.138 C 131.552 254.526,136.978 248.641,143.688 245.016 C 146.040 243.746,146.898 243.414,151.600 241.958 C 154.278 241.128,245.722 241.128,248.400 241.958 C 252.939 243.364,253.752 243.663,255.712 244.647 C 265.194 249.409,271.411 257.964,273.407 269.000 C 274.416 274.582,274.252 360.405,273.228 362.662 C 271.146 367.247,264.502 367.566,262.047 363.198 L 261.200 361.691 261.200 317.345 C 261.200 270.497,261.185 270.081,259.375 266.162 C 256.689 260.347,251.778 256.174,245.783 254.612 C 242.239 253.689,157.761 253.689,154.217 254.612 C 146.321 256.669,140.475 263.138,139.225 271.200 C 138.884 273.402,138.792 289.157,138.880 330.400 L 139.000 386.600 166.200 386.600 L 193.400 386.600 193.600 332.969 L 193.800 279.338 194.924 277.864 C 197.578 274.385,202.422 274.385,205.076 277.864 L 206.200 279.338 206.400 332.969 L 206.600 386.600 278.200 386.702 C 349.746 386.803,349.802 386.803,352.400 385.972 C 358.555 384.003,362.922 379.980,365.544 373.865 L 366.600 371.400 366.800 297.600 L 367.000 223.800 367.916 222.516 C 369.130 220.813,370.887 219.600,372.138 219.600 C 372.696 219.600,373.264 219.420,373.400 219.200 C 374.204 217.899,369.534 219.712,368.127 221.247 C 366.360 223.174,366.400 221.436,366.400 296.607 C 366.400 375.314,366.537 370.558,364.130 375.533 C 362.709 378.469,358.474 382.736,355.593 384.133 C 350.745 386.484,354.141 386.385,277.500 386.393 L 207.200 386.400 207.200 334.206 C 207.200 294.419,207.084 281.578,206.712 280.188 C 204.805 273.057,195.195 273.057,193.288 280.188 C 192.916 281.578,192.800 294.419,192.800 334.206 L 192.800 386.400 166.243 386.400 C 142.395 386.400,139.661 386.335,139.443 385.767 C 139.309 385.419,139.200 360.518,139.200 330.431 C 139.200 276.847,139.326 270.673,140.477 268.000 C 140.713 267.450,141.102 266.550,141.341 266.000 C 143.354 261.365,147.648 257.452,152.800 255.556 L 155.400 254.600 199.803 254.600 L 244.205 254.600 247.003 255.534 C 252.892 257.501,256.983 261.607,259.622 268.200 C 260.652 270.775,260.800 277.114,260.800 318.757 L 260.800 362.282 261.710 363.631 C 264.678 368.037,270.770 367.924,273.413 363.414 L 274.407 361.718 274.284 315.359 C 274.216 289.862,274.026 268.460,273.862 267.800 C 273.212 265.196,272.694 263.363,272.394 262.600 C 268.828 253.530,262.331 246.749,253.800 243.193 C 251.181 242.101,249.273 241.532,246.200 240.926 C 245.320 240.752,224.530 240.610,200.000 240.610 C 175.470 240.610,154.680 240.752,153.800 240.926 C 141.537 243.346,131.869 251.343,127.595 262.600 C 127.303 263.368,126.774 265.255,126.138 267.800 C 125.973 268.460,125.783 295.415,125.716 327.700 L 125.595 386.400 88.897 386.393 C 58.131 386.387,51.747 386.291,49.400 385.797 C 41.950 384.229,36.295 378.810,34.407 371.429 C 33.612 368.320,33.600 367.181,33.600 296.323 C 33.600 218.588,33.720 222.921,31.507 220.883 C 30.264 219.737,26.247 218.139,26.493 218.887 " stroke="none" fill="#79878b" fill-rule="evenodd"></path></g></svg>